<mxfile modified="2021-01-28T23:45:48.139Z" host="app.diagrams.net" agent="5.0 (Windows NT 6.1; Win64; x64) AppleWebKit/537.36 (KHTML, like Gecko) Chrome/87.0.4280.141 Safari/537.36" etag="O2Ceu8ekwYKfZvVLeaUJ" version="14.1.9" type="github">
  <diagram id="Ht1M8jgEwFfnCIfOTk4-" name="Page-1">
    <mxGraphModel dx="1483" dy="1628" grid="1" gridSize="10" guides="1" tooltips="1" connect="1" arrows="1" fold="1" page="1" pageScale="1" pageWidth="1169" pageHeight="827" math="0" shadow="0">
      <root>
        <mxCell id="0" />
        <mxCell id="1" parent="0" />
        <mxCell id="NLAMYtO9Em05IslKq7qE-7" value="" style="rounded=0;whiteSpace=wrap;html=1;fillColor=none;" parent="1" vertex="1">
          <mxGeometry x="455.25" y="-800" width="144.75" height="420" as="geometry" />
        </mxCell>
        <mxCell id="UEzPUAAOIrF-is8g5C7q-175" value="AWS Cloud" style="points=[[0,0],[0.25,0],[0.5,0],[0.75,0],[1,0],[1,0.25],[1,0.5],[1,0.75],[1,1],[0.75,1],[0.5,1],[0.25,1],[0,1],[0,0.75],[0,0.5],[0,0.25]];outlineConnect=0;gradientColor=none;html=1;whiteSpace=wrap;fontSize=12;fontStyle=0;shape=mxgraph.aws4.group;grIcon=mxgraph.aws4.group_aws_cloud_alt;strokeColor=#232F3E;fillColor=none;verticalAlign=top;align=left;spacingLeft=30;fontColor=#232F3E;dashed=0;labelBackgroundColor=#ffffff;" parent="1" vertex="1">
          <mxGeometry x="214" y="-800" width="156" height="220" as="geometry" />
        </mxCell>
        <mxCell id="NLAMYtO9Em05IslKq7qE-9" value="" style="shape=image;html=1;verticalAlign=top;verticalLabelPosition=bottom;labelBackgroundColor=#ffffff;imageAspect=0;aspect=fixed;image=https://cdn4.iconfinder.com/data/icons/technology-83/1000/vr_tv_virtual_virtual_reality_apple_box_virtual_box-128.png" parent="1" vertex="1">
          <mxGeometry x="455.25" y="-800" width="28" height="28" as="geometry" />
        </mxCell>
        <mxCell id="NLAMYtO9Em05IslKq7qE-10" value="Virtual Box" style="text;html=1;strokeColor=none;fillColor=none;align=left;verticalAlign=middle;whiteSpace=wrap;rounded=0;" parent="1" vertex="1">
          <mxGeometry x="483.25" y="-796" width="80" height="20" as="geometry" />
        </mxCell>
        <mxCell id="NLAMYtO9Em05IslKq7qE-21" value="" style="group" parent="1" vertex="1" connectable="0">
          <mxGeometry x="225" y="-740" width="130.5" height="150" as="geometry" />
        </mxCell>
        <mxCell id="NLAMYtO9Em05IslKq7qE-6" value="" style="rounded=0;whiteSpace=wrap;html=1;" parent="NLAMYtO9Em05IslKq7qE-21" vertex="1">
          <mxGeometry width="130.5" height="150" as="geometry" />
        </mxCell>
        <mxCell id="NLAMYtO9Em05IslKq7qE-1" value="" style="outlineConnect=0;fontColor=#232F3E;gradientColor=none;fillColor=#D86613;strokeColor=none;dashed=0;verticalLabelPosition=bottom;verticalAlign=top;align=center;html=1;fontSize=12;fontStyle=0;aspect=fixed;pointerEvents=1;shape=mxgraph.aws4.t2_instance;" parent="NLAMYtO9Em05IslKq7qE-21" vertex="1">
          <mxGeometry x="18" y="50" width="69.5" height="69.5" as="geometry" />
        </mxCell>
        <mxCell id="NLAMYtO9Em05IslKq7qE-2" value="" style="outlineConnect=0;fontColor=#232F3E;gradientColor=none;fillColor=#D86613;strokeColor=none;dashed=0;verticalLabelPosition=bottom;verticalAlign=top;align=center;html=1;fontSize=12;fontStyle=0;aspect=fixed;pointerEvents=1;shape=mxgraph.aws4.t2_instance;" parent="NLAMYtO9Em05IslKq7qE-21" vertex="1">
          <mxGeometry x="50.5" y="70" width="69.5" height="69.5" as="geometry" />
        </mxCell>
        <mxCell id="NLAMYtO9Em05IslKq7qE-5" value="" style="shadow=0;dashed=0;html=1;strokeColor=none;fillColor=#EF8F21;labelPosition=center;verticalLabelPosition=bottom;verticalAlign=top;align=center;outlineConnect=0;shape=mxgraph.veeam.linux;" parent="NLAMYtO9Em05IslKq7qE-21" vertex="1">
          <mxGeometry width="30" height="30" as="geometry" />
        </mxCell>
        <mxCell id="NLAMYtO9Em05IslKq7qE-19" value="Amazon Linux" style="text;html=1;strokeColor=none;fillColor=none;align=left;verticalAlign=middle;whiteSpace=wrap;rounded=0;" parent="NLAMYtO9Em05IslKq7qE-21" vertex="1">
          <mxGeometry x="36.5" y="5" width="80.5" height="20" as="geometry" />
        </mxCell>
        <mxCell id="NLAMYtO9Em05IslKq7qE-26" value="" style="group" parent="1" vertex="1" connectable="0">
          <mxGeometry x="460" y="-740" width="130.5" height="150" as="geometry" />
        </mxCell>
        <mxCell id="NLAMYtO9Em05IslKq7qE-29" value="" style="group" parent="NLAMYtO9Em05IslKq7qE-26" vertex="1" connectable="0">
          <mxGeometry width="130.5" height="150" as="geometry" />
        </mxCell>
        <mxCell id="NLAMYtO9Em05IslKq7qE-17" value="" style="rounded=0;whiteSpace=wrap;html=1;" parent="NLAMYtO9Em05IslKq7qE-29" vertex="1">
          <mxGeometry width="130.5" height="150" as="geometry" />
        </mxCell>
        <mxCell id="NLAMYtO9Em05IslKq7qE-11" value="" style="aspect=fixed;pointerEvents=1;shadow=0;dashed=0;html=1;strokeColor=none;labelPosition=center;verticalLabelPosition=bottom;verticalAlign=top;align=center;fillColor=#00188D;shape=mxgraph.azure.virtual_machine_feature" parent="NLAMYtO9Em05IslKq7qE-29" vertex="1">
          <mxGeometry x="20" y="50" width="66.67" height="60" as="geometry" />
        </mxCell>
        <mxCell id="NLAMYtO9Em05IslKq7qE-12" value="" style="shape=image;html=1;verticalAlign=top;verticalLabelPosition=bottom;labelBackgroundColor=#ffffff;imageAspect=0;aspect=fixed;image=https://cdn2.iconfinder.com/data/icons/fatcow/32x32/centos.png;fillColor=none;align=left;" parent="NLAMYtO9Em05IslKq7qE-29" vertex="1">
          <mxGeometry width="32" height="32" as="geometry" />
        </mxCell>
        <mxCell id="NLAMYtO9Em05IslKq7qE-18" value="" style="aspect=fixed;pointerEvents=1;shadow=0;dashed=0;html=1;strokeColor=none;labelPosition=center;verticalLabelPosition=bottom;verticalAlign=top;align=center;fillColor=#00188D;shape=mxgraph.azure.virtual_machine_feature" parent="NLAMYtO9Em05IslKq7qE-29" vertex="1">
          <mxGeometry x="50" y="79.5" width="66.67" height="60" as="geometry" />
        </mxCell>
        <mxCell id="NLAMYtO9Em05IslKq7qE-20" value="CentOS" style="text;html=1;strokeColor=none;fillColor=none;align=center;verticalAlign=middle;whiteSpace=wrap;rounded=0;" parent="NLAMYtO9Em05IslKq7qE-29" vertex="1">
          <mxGeometry x="36.999999999999886" y="6" width="40" height="20" as="geometry" />
        </mxCell>
        <mxCell id="NLAMYtO9Em05IslKq7qE-30" value="Web APP servers" style="text;html=1;strokeColor=none;fillColor=none;align=center;verticalAlign=middle;whiteSpace=wrap;rounded=0;" parent="1" vertex="1">
          <mxGeometry x="240" y="-760" width="100" height="20" as="geometry" />
        </mxCell>
        <mxCell id="NLAMYtO9Em05IslKq7qE-31" value="Web APP servers" style="text;html=1;strokeColor=none;fillColor=none;align=center;verticalAlign=middle;whiteSpace=wrap;rounded=0;" parent="1" vertex="1">
          <mxGeometry x="475.25" y="-760" width="100" height="20" as="geometry" />
        </mxCell>
        <mxCell id="NLAMYtO9Em05IslKq7qE-32" value="" style="group" parent="1" vertex="1" connectable="0">
          <mxGeometry x="460" y="-550" width="130.5" height="150" as="geometry" />
        </mxCell>
        <mxCell id="NLAMYtO9Em05IslKq7qE-33" value="" style="group" parent="NLAMYtO9Em05IslKq7qE-32" vertex="1" connectable="0">
          <mxGeometry width="130.5" height="150" as="geometry" />
        </mxCell>
        <mxCell id="NLAMYtO9Em05IslKq7qE-34" value="" style="rounded=0;whiteSpace=wrap;html=1;" parent="NLAMYtO9Em05IslKq7qE-33" vertex="1">
          <mxGeometry width="130.5" height="150" as="geometry" />
        </mxCell>
        <mxCell id="NLAMYtO9Em05IslKq7qE-35" value="" style="aspect=fixed;pointerEvents=1;shadow=0;dashed=0;html=1;strokeColor=none;labelPosition=center;verticalLabelPosition=bottom;verticalAlign=top;align=center;fillColor=#00188D;shape=mxgraph.azure.virtual_machine_feature" parent="NLAMYtO9Em05IslKq7qE-33" vertex="1">
          <mxGeometry x="31.92" y="60" width="66.67" height="60" as="geometry" />
        </mxCell>
        <mxCell id="NLAMYtO9Em05IslKq7qE-36" value="" style="shape=image;html=1;verticalAlign=top;verticalLabelPosition=bottom;labelBackgroundColor=#ffffff;imageAspect=0;aspect=fixed;image=https://cdn2.iconfinder.com/data/icons/fatcow/32x32/centos.png;fillColor=none;align=left;" parent="NLAMYtO9Em05IslKq7qE-33" vertex="1">
          <mxGeometry width="32" height="32" as="geometry" />
        </mxCell>
        <mxCell id="NLAMYtO9Em05IslKq7qE-38" value="CentOS" style="text;html=1;strokeColor=none;fillColor=none;align=center;verticalAlign=middle;whiteSpace=wrap;rounded=0;" parent="NLAMYtO9Em05IslKq7qE-33" vertex="1">
          <mxGeometry x="31.919999999999888" y="6" width="40" height="20" as="geometry" />
        </mxCell>
        <mxCell id="NLAMYtO9Em05IslKq7qE-39" value="LoadBalancer" style="text;html=1;strokeColor=none;fillColor=none;align=center;verticalAlign=middle;whiteSpace=wrap;rounded=0;" parent="1" vertex="1">
          <mxGeometry x="475.25" y="-400" width="100" height="20" as="geometry" />
        </mxCell>
        <mxCell id="NLAMYtO9Em05IslKq7qE-56" style="edgeStyle=orthogonalEdgeStyle;rounded=0;orthogonalLoop=1;jettySize=auto;html=1;strokeWidth=5;fontSize=11;fillColor=#f5f5f5;strokeColor=#666666;" parent="1" source="NLAMYtO9Em05IslKq7qE-35" target="NLAMYtO9Em05IslKq7qE-2" edge="1">
          <mxGeometry relative="1" as="geometry">
            <Array as="points">
              <mxPoint x="550" y="-560" />
              <mxPoint x="310" y="-560" />
            </Array>
          </mxGeometry>
        </mxCell>
        <mxCell id="NLAMYtO9Em05IslKq7qE-58" style="edgeStyle=orthogonalEdgeStyle;rounded=0;orthogonalLoop=1;jettySize=auto;html=1;strokeWidth=5;fontSize=11;fillColor=#f5f5f5;strokeColor=#666666;" parent="1" source="NLAMYtO9Em05IslKq7qE-35" target="NLAMYtO9Em05IslKq7qE-11" edge="1">
          <mxGeometry relative="1" as="geometry">
            <mxPoint x="502" y="-620" as="targetPoint" />
            <Array as="points">
              <mxPoint x="550" y="-560" />
              <mxPoint x="500" y="-560" />
            </Array>
          </mxGeometry>
        </mxCell>
        <mxCell id="NLAMYtO9Em05IslKq7qE-59" style="edgeStyle=orthogonalEdgeStyle;rounded=0;orthogonalLoop=1;jettySize=auto;html=1;strokeWidth=5;fontSize=11;fillColor=#f5f5f5;strokeColor=#666666;" parent="1" source="NLAMYtO9Em05IslKq7qE-35" target="NLAMYtO9Em05IslKq7qE-1" edge="1">
          <mxGeometry relative="1" as="geometry">
            <Array as="points">
              <mxPoint x="550" y="-560" />
              <mxPoint x="278" y="-560" />
            </Array>
          </mxGeometry>
        </mxCell>
        <mxCell id="lPv-uambnAq8Y00hWXkL-2" value="" style="dashed=0;outlineConnect=0;html=1;align=center;labelPosition=center;verticalLabelPosition=bottom;verticalAlign=top;shape=mxgraph.weblogos.github;fillColor=none;fontSize=11;" vertex="1" parent="1">
          <mxGeometry x="110" y="-580" width="75" height="75" as="geometry" />
        </mxCell>
        <mxCell id="lPv-uambnAq8Y00hWXkL-5" style="edgeStyle=orthogonalEdgeStyle;rounded=0;orthogonalLoop=1;jettySize=auto;html=1;entryX=0.25;entryY=1;entryDx=0;entryDy=0;strokeWidth=1;fontSize=11;" edge="1" parent="1" source="lPv-uambnAq8Y00hWXkL-4" target="UEzPUAAOIrF-is8g5C7q-175">
          <mxGeometry relative="1" as="geometry">
            <Array as="points">
              <mxPoint x="253" y="-450" />
            </Array>
          </mxGeometry>
        </mxCell>
        <mxCell id="lPv-uambnAq8Y00hWXkL-24" value="SSH" style="edgeLabel;html=1;align=center;verticalAlign=middle;resizable=0;points=[];fontSize=11;" vertex="1" connectable="0" parent="lPv-uambnAq8Y00hWXkL-5">
          <mxGeometry x="-0.2884" relative="1" as="geometry">
            <mxPoint as="offset" />
          </mxGeometry>
        </mxCell>
        <mxCell id="lPv-uambnAq8Y00hWXkL-6" value="SSH" style="edgeStyle=orthogonalEdgeStyle;rounded=0;orthogonalLoop=1;jettySize=auto;html=1;entryX=-0.009;entryY=0.894;entryDx=0;entryDy=0;entryPerimeter=0;strokeWidth=1;fontSize=11;" edge="1" parent="1" source="lPv-uambnAq8Y00hWXkL-4" target="NLAMYtO9Em05IslKq7qE-7">
          <mxGeometry relative="1" as="geometry" />
        </mxCell>
        <mxCell id="lPv-uambnAq8Y00hWXkL-4" value="" style="shape=image;verticalLabelPosition=bottom;labelBackgroundColor=#ffffff;verticalAlign=top;aspect=fixed;imageAspect=0;image=data:image/png,iVBORw0KGgoAAAANSUhEUgAAAZcAAAExCAYAAACwI+/+AAAgAElEQVR4Ae2dB9QURfb23V1zBhUTBjDnHNYMIipiWsNnVhQTZkHFtAYQFRQRdc1iRjFhjphFMIBizlnUNeuqG+s7v/rvM1tvMzNvz0z3TPfM7XP6VMcKz626T9WtNJ2zwxAwBAwBQ8AQSBiB6RL2z7wzBAwBQ8AQMASckYtlAkPAEDAEDIHEETBySRxS89AQMAQMAUPAyMXygCFgCBgChkDiCBi5JA6peWgIGAKGgCFg5GJ5wBAwBAwBQyBxBIxcEofUPDQEDAFDwBAwcrE8YAgYAoaAIZA4AkYuiUNqHhoChoAhYAgYuVgeMAQMAUPAEEgcASOXxCE1Dw0BQ8AQMASMXCwPGAKGgCFgCCSOgJFL4pCah4aAIWAIGAJGLpYHDAFDwBAwBBJHwMglcUjNQ0PAEDAEDAEjF8sDhoAhYAgYAokjYOSSOKTmoSFgCBgChoCRi+UBQ8AQMAQMgcQRMHJJHFLz0BAwBAwBQ8DIxfKAIWAIGAKGQOIIGLkkDql5aAgYAoaAIWDkYnnAEDAEDAFDIHEEjFwSh9Q8NAQMAUPAEDBysTxgCBgChoAhkDgCRi6JQ2oeGgKGgCFgCBi5WB4wBAwBQ8AQSBwBI5fEITUPDQFDwBAwBIxcLA8YAoaAIWAIJI6AkUvikJqHhoAhYAgYAkYulgcMAUPAEDAEEkfAyCVxSM1DQ8AQMAQMASMXywOGgCFgCBgCiSNg5JI4pOahIWAIGAKGgJGL5QFDwBAwBAyBxBEwckkcUvOw0Qj85z//cZzRQ8+jrr6L+zz6XfRe/uFG34X3pd6H/9u1IZBXBIxc8io5i3dRBELlXez63//+t4ue+k7Pda8AdB/Xjf6Hv/pXYehZeK9n+hbXDkMgrwgYueRVchbvkghIORdT3FLg//rXv9xvv/3mfvrpJ/f111+7qVOnuo8//ti999577u2333ZvvPGGe/XVV93LL7/sJk+e7CZNmuReeOEF9/zzzxc9effiiy/6b6dMmeJee+0178dbb73lPvjgA/fJJ5+4L7/80n3zzTfuxx9/dH//+98dcVAcueYk7npm5FJSxPYiBwgYueRASBbFyhGQkhbR6F5K/G9/+5snlJdeesndcccd7uKLL3Ynn3yy69u3r9thhx1c9+7d3TrrrOOWX355t+iii7oFFljAzT333G6OOeYoevJu/vnnd126dHErrbSSW3/99V2PHj3cn/70J3fIIYe4wYMHuyuuuMLdfffdnqggtF9//dX985//bHMqniLBylNufxgC2UDAyCUbcrBY1ICAFLGIhHu1AvAWBU6r4fHHH3cnnnii22mnnbzyX3HFFd2yyy7rCWGRRRbxBDLPPPMUSGTWWWd1M888s5txxhndDDPM4P7whz/48/e//72Lnrybfvrp/bezzDKLm2222TwJQTrzzjuvW3DBBT1Jde3a1S2zzDJu5ZVX9nEgLkOGDHFPPPGE++6773yrJUowSpfcGqCyXw2BuiFg5FI3qC2gahCQQg3dqNkofIepCxMURHL11Vf7FsPhhx/udtttN9ezZ0+35JJLuo4dO3oSmG666Vyjzt/97nc+DsSF1hFx22uvvdyRRx7phg4d6m666Sb37LPPus8++8wTJdiF6YxeRwm2GqztH0MgSQSMXJJE0/xKFAEUKC0QkYlcntEa4Z7rH374wfd33Hbbbe6iiy5yJ510ktt99919y2CxxRZzs88+u0OZN4pI4oZLHDG7LbXUUt4s16dPH3fKKae4yy+/3I0dO9a9+eab7h//+EcBj2LYiGQSFYR5ZghUgYCRSxWg2S/pIwCxoChFIlFioc+CjnI62++66y7Xr18/h5kLU5aUeR4IRXGVG40z5rc555zTrbHGGu60005z48eP94MFaJ19//33flCCCEUYgZ0dhkCjETByabQELPyiCKjVgiuikfL8+eef3b333uv69+/vO91nmmmmXLRMRCCVuCIbXPp1MKNtuOGGbtCgQe6pp57yI92EkXDCtcMQaDQCRi6NloCFXxQBiIThuqqV0/eA2WvPPfd06667ru87YXQWJi9q91LCUcVd6nn0uzzckxYGDZDmhRZayC299NKux2Y9PMneeuutjhFwMhnKZGZEUzR72cM6IGDkUgeQLYj/IaDaNU+41gmJ6NA3kMu7777rbrjhBnfUUUf5fggIBQUrMmgm8lCaKnEZlcbw527dunmz2e233+7n6qiVJ3IGU2EuV8+Eu7mGQJIIGLkkiab51S4CIg5cXUsRqrb9+eefuyeffNKNGjXKDRw40G2yySZ+mDDDgVudTIoRj1o0iy++uNtyyy39fJ0xY8b4/plvv/22MAhAmMsV8bQrNPvAEKgCASOXKkCzX6pHQIQiIpEZB0WHIvzwww99S2XnnXd2nTp18iavYgrVnk07jFrEy9wchlwztJm+KVYdYCUCkbhcsOe0wxBIAwEjlzRQNT/LIgDBRMkFE9jEiRO9+YtJhsXIQ8qz2Dt7Ni3Z0NJbbrnl3KmnnuqXsYFUNJRZpG7kUjar2ssaEDByqQE8+7U6BMLWy0cffeQw4ey7775u1VVX9UuoUPM2spiWLCrFBDIGSzr/1157bb8MzYMPPujXNoNkRPDVSdH+MgTKI2DkUh4fe1sBArLlh7+Ez0Qq1KCZv8LijmeddZYfWsvaXQy1rVSB2vfxSIglbDp37ux69erlhg8f7gdKQC6ST9QNZWjXhkA1CBi5VIOa/TMNAiIOXB16Jhs/LnNUWCl49OjRbsCAAW611VYzQqnjMjSYyljXjFUMmHzKrH8Ri1oyoQwlS3MNgUoRMHKpFDH7viQCUaXEPQpLJ8vNM8P89NNP94s4ouis5RGv5ZE0TrRkmPXPZMz333/fz5GRqSwqx5ICtxeGQBkEjFzKgGOvakMAJUVrRcqKxRjXW2+9wggw66CvP7GEmHONOZJFPdmDhkmYmCvV6V+b9O3vVkfAyKXVc0CK6YdUfvnlFzdhwgR3/PHH+05lZperFh4qOj0zt76EQ+uRLQFoxYwYMcJvcAa5qGKQYvYwr5scASOXJhdwWslTawT/uQ6VkVorrFb8zDPPuF133dXPu2CfEyOP+pJHXLwZTMFoPZb8f+ihh7w81QejPCQ5h7LXO3MNgSgCRi5RROw+FgKhohGxSBlR82Wr4Ouvv97tv//+uVnyPq4ibubv2DSNyZcPPPCA3xeH3TJDWUvGRjCxiklLf2Tk0tLiry3xaqGE5AKxMCOcIcYsgS/TF67OZlbOzZA2lvinb4xtmVkxIdz2ICQXI5jayk+z/23k0uwSTiF9IhO8hmDCk5ruEUcc4RZeeOECsTSDwm21NLDSNItisr4bo/wgFUhGMjdiSaFgNZmXRi5NJtB6JEfkopYLLhtXsdjkdttt5yfrMdS11RRys6UXgmH5GDZiu//++/0osrAVg9ztMARKIWDkUgoZe15AoFgtVQRDjZaaLQskbr311n7XRJRSsynaVk0PHf30w+yxxx5u3LhxfvSfWqrkgfAsZBi7MAScc0Yulg3aRaCYAhG5aG0wRoQZqWRzJFgSxLjgggu6vffe2919993uq6++akMqUbJpN0PZBy2BgJFLS4i59kRGFQgtlu+++85dffXVfr8VddwnocjMj+yRFPKlD4YtliEYzKCqdGAq4yRP8MwOQwAEjFwsH7SLgJSICAaX2dxsrbvWWmvZgpN1XBus0cSLmaxHjx5u7NixPt+QF9guAXIxYmm3KLXUB0YuLSXu6hOLEkF54LKfPS0WlnGfY445bFRYC5EL5Db33HO7LbbYwl1zzTU+T1irpfpy1cx/Grk0s3SrSJtaKeGvIhWIhXkPzH9Yf/31/V4hZg7Lngkr7dYNMu/YsaPbfPPN/UTZcJdLtV7khvnIrlsLASOX1pJ32dSKRKKKAVLhnDp1qm+x9OzZ00aDtVhrpRhhzTXXXK5bt27uscce830wyidhPuI6mp/KZkJ72TQIGLk0jShrT4iUQtQnOmrZh+WWW27xm03ZHJbWa60UIxdaMCxEus8++7gnnnjC73AZEgz5hpNndrQeAkYurSfzilIM4dB5zwTJ7t27e1OYDTk2chHZQDDTTz+923777d19991XIBMIxYiloqLWdB8buTSdSJNLEMSCPf3FF1/0Kxuz94f1sRixiFhwlR9Ytv/kk092n3/+eYFU1IqxlktyZTJPPhm55EladYir7OO4v/32m3vuuee82WOhhRZytnNk+8QiZRsq4Fa4Jt0s2X/aaaf5PWHIOyIX5SmyL9fhfR2ytAXRIASMXBoEfBaDpdCjEOSy/e3QoUNtyfwKOu9FLrg6W4FclMZlllnGDRs2rE0Hf5jXlbeMYEJUmvPayKU55VpVqlTwsZWzXhjzGBgNJMVh7v+1XJhIyMZnHTp08ENymfcx88wzF0xE4MQ3nK3WPwUutGAmT57sB4GQl0Ii4VpnVZnUfsoNAkYuuRFV+hEVueBedNFFbt1113U2MmxaUxhzPNZZZx2/ERrbC7Dm1mqrreZmmmmmlidiWmtMrO3du7cfBIJ5zI7WRMDIpTXlXjTVkAqbfX3yySduxx13tNn3gTlM5i5I5ZxzznGTJk3yu22+++677vXXX/fbOZ9xxhl+9nqrtVaiLVpabLTq+vfv7weDWEulaHFr+odGLk0v4vIJVMHHpb/l22+/dYMHD/Z73keVRivfs2jjnnvu6SeRvvPOOwXTjnCDlN9880135pln+lYM8z9aGS/Szl4wI0aMcH/9618Lc12U38rnSnvbDAgYuTSDFKtMAwVdcxEgli+//NKNGTPGrbDCCr4PoVWVo1opSj/3LDnPfiaQrzCTopTL86+//tpv8bzUUku1PLnQgtt2223dAw88UFjYstgIsiqzr/2WcQSMXDIuoLSiJ2KRosQ2/vDDD7s11lhjms5pKdlWdemkXnPNNd2nn35aGE0HfuEhgmERRxb23Gyzzdp08LcidpALQ9gPPPBAP/+F1p2RS5hrmvvayKW55Vs2dShErWj79ttvu9NPP92PcIrW3FtRMSrNYIF557zzzvMj6IRXMXJBcaJAf/31Vz9jvZXnBUEsYIfbpUsXN2DAgDatvrIZ0142BQJGLk0hxuoSgYJUy4VhxwwhjRJL9F5Kt1Vc+lpY2oQ5P+xbAoEIsxB1sOSdyOeyyy7zo+1aBadoOsN8wyg6TK1PPfWUn/8CflFyDrG06+ZAwMilOeTYbioozGGBljLEpdDvvvvufu5GVEm0+v1KK63kJ5LKpCPcIJLw4LneoTxfe+01d8ABB/ih3KGibVU855xzTnfMMcf4QQ8hVrrGtaO5EDByaS55Fk2NlF5YgLlGYdKJf/TRR7vFF1+85Tugo4ofk86uu+7qnn322TZ9BSGOApxnOiEeFvu85JJLfI1dJqKo/610j4lw+eWXd1deeaXvkwIrcOIUbsLS3OZAwMilOeRYNhUqyOFHPEMB3nXXXb4Tv5UUXdy00pF/6qmnul9++aWNIgxxDK+lJFGYmMeYC3PUUUd50rbWy3S+/4UVH9geW6YxYSY3xNOu842AkUu+5VdT7FnipW/fvn6YLQrXFGDb2fjzzz+/O/fccz1RQBhxDilJvmfYMjX1uGTWrN+Rr2i9kb5ZZ53VL24JYUPA4CSiiYOvfZMfBIxc8iOrRGPKcFk6nZdccklb4iWYiR8qeJZ1efzxx70SbA98kUroYna85557HFsVMGs99LuVriEXnZBMr169fIsZYglPsLOjeRAwcmkeWZZNSaj0KNATJkzwczFYcLGVFF2ctKIAWT/s0ksv9Vs7U7OOc4QY65oFHOm3ocYeJ+xm/kYt40UXXdR37qvlIoIxcomTy/LzjZFLfmRVdUwptChICjEuy3FcccUVtnZYiRYLRLDddtt5Aqb1UYnSE6nIZcDETTfd5JZYYgkbOfZfvOnc33jjjX2rkDlBYEXerATnqguD/Vg3BIxc6gZ14wKi0EIqmoPBfuesk9XMteRq00btulOnTu7uu+/2S7nUovSEOybInXfe2dGHo76HauPXLP+xTcEWW2zhZ+5by6VxuiHNkI1c0kQ3I36j5GSC4Pryyy93yy67rJFLkZYL5NK5c2e/m6JaLWBWzcF/nGwVfeONN7pVVlml0PfQLCRRbTrAmaVhJk6c6PGphcSrkY39kz4CRi7pY9zwEFBwtFyYYc6cDTqqrQ+g7cgwKUn6WrbZZps2e8HXQi4oTXD/4IMPXI8ePazl8l9Ch1xovRx//PF+YiX5s1qcG17ALAJFETByKQpLcz0UudB6GTJkiJ/MJmVq7v9IBoXHRL+RI0e67777zhMySg+CiB5gWuwMv9N7/KBvgVUQbCn+/8MbrBlMwoKgjz76aGFEHphZKybMRfm9NnLJr+xix5wCS+35888/9x3VNkLsf4QCuaLoVJNmk7RXXnnFkwGkoDMEW6SBEgxPnkcPKUv8GT58eJv12xRuKxI8aaf/ibXbzj77bN+yC7ESwRTDNIqx3WcTASOXbMolsVhRODl//vlnv1cLi1O2ojJrL83MQ2G7ATa3ggik6KTkogLRe1ok9M2U+o7/+JZW43vvvecOO+ywwqgxlCsnira9+DXb+zDNq6++urv22msLRC1sy2EalYfdZw8BI5fsySSxGKmQoiyZjc9+73RWN5uiSiI9KHn6opiXglLjBLdSCg5sIZZXX33VjyqDPHgWPUIZsGcOJreuXbs6VgoOFWwSacijH2BA64XdT6OrTksOUUztPh8IGLnkQ05VxVKKjZo1HcqrrbaaX/nYlFpbsxhKecYZZ3QDBw70fS0iFCm3YqQBmXzyySd+SPf48eMLrZ1QUPynE7+QwwsvvOCOPPJI69j/b8e+Wm8iduXZctiHGNt1dhEwcsmubKqOmRSaCiqtlvvvv9/P3zBimZZYIBeWwbn44ou9+SrEr9Q164bdd999vhXC4p+QjUip1D+0hNgGmaHgJof/deyD/4YbbujYU0ikIhcs7cgnAkYu+ZRb2VirYOKi9KZMmeIOOeQQG6lUZF4Lig1Fz6RS1hFTf0spghCmL730kt++l31KBg0a5N555512/8VPTD+sN7bwwgu39Hpj4B6emGvZ+gHTocyRYG3kUraoZ/qlkUumxVN55CiMUpC4LKs/ZswYP+zTasttFRrKDbMMBHHdddcVhh9HURfRiFh++OEHd/311xf6Tbou0dX95S9/Kdl6kX/4gx8vv/yy79+xYcn/kwd5k3lAH3/8caHvRbgLP3PzhYCRS77kFSu2IhhaLfS1MNTTiOV/iiysMTOZlIUlX3zxxUKNuRjIIaZvvPGG3+dl+umn97Vv+mtOOeUU38EvApFixNWhd99//7175JFH3Hzzzdem9h7GqxWvl1lmGb/FAfgUw084mpsPBIxc8iGn2LGUAlMte9y4cW633XYzcomYYaS85513XnfHHXe4r776qiS5hJjSGmQhyg022KDQKc8w5h122MFPBpQpRy7/hgf3dOx/9NFHbo899vDrjSkure7Sgtx0003dF198Ueh7ieIXYmnX2UbAyCXb8qk4dhRG2axxr7rqKrfyyitbDbkIuUAKXbp0cW+99VYbW38IOniKqMGTPpOzzjrLL8kvMqBVuPTSS/vWC8TBP+FZzD/WG7v99tv93BprVf5fqxITJcvxMxwccy54g6Md+UTAyCWfcisZaylDCiado2eccYbvU5AibHU3VORamZdVizEhFlNmwlPv+Zb5QijCEEvmrdB6gTQgI51R5Sj/ICFq6KwMHPUr9LfVrueZZx7fR8hWBWr9lczs9iLTCBi5ZFo81UUOBYYyZLkXFGGrKai46V1hhRX8hmAM1YZYiikzsNTJN/fee6/r3bv3NGZGSAuTzrvvvutJHfxFSKEUQ3JhEuYuu+xii4gGrcq55prLtwDBEazsyC8CRi75lV3RmEt5oSifeuopt9NOOxm5BMpLxAMZbLbZZk6tlnItDTCFWBglRv/VHHPMURRThhcffPDBntQhFvkZCgq/JCNalvTfMEqqlbdBDmUyyyyzeLmwFL+wCvGz6/wgYOSSH1nFiqkUF2YXhseutdZaRRWhCnSruqx+zJIjKHiRAC74hQf3EAvmrmeeecZP9itFBChG1sliSZhffvmlpJlNMoKAGHm2//77m2nsvxUARuAtssgi7qGHHirakgxlY9fZRsDIJdvyqTh2KC6Iha2M99tvP8doqFYlkFLpptVCC4TascxhIhjw0wn4XPMNo8mY5LfYYotNYxJTOPSdMLz4vPPO80PA+Y//w0N+KzxaQ1deeaVbe+21S/or/1vBRTb0XzHvCGyi+IVY2nW2ETByybZ8Ko4dhRFbPhP1NtpoIyOWIiYxthxgXgqtCyl5Kf1iLiTB5D76aJjTUk7JoxjZH/7pp5/2fS7FlCPPFC5+09Jh0ywUazm/W+kdA1FYRboYfhUXCvuhIQgYuTQE9nQDZRgn612xhHwrKaS4aWVV4osuusgrf5S8FBhu9OQ9ZM0SOmzL2x4BYDLr0KGDnzuDyU1+RyWucCAX1ikbNWqUwyTUnv9x05j37/baay/35JNPFuQRxc/us4+AkUv2ZVRRDFFa7KJIfwKLMeZdySQdf0xXxx57rG/ZRc1WUvi4alngUoOmJs3QZeIDAZQjAcJgEUxMafgVPRSOwiAeDz/8sFtiiSXcDDPMYDKbbjq/yCrmRckiiqHdZx8BI5fsy6jiGLLy7gEHHOAWXHBBU1QRsxikcMUVV/jWQhzFz6TJxx57zM/Ix+RVjuzwW3NW+vTp42vedNqHh4hFSlMEg2msX79+fk5SOeIqF34zvaMVd+KJJxbmDYUY2nU+EDByyYecKoolE9AY3sqcgWZSOLWmRf0hTzzxRGGUWDFgpfBpUbz//vvunHPO8aYuEUe5eIgYmLFPzVtzaEJSiV4THgMwbrvtNltvLKgMsGvnp59+aqPGimXSHDwzcsmBkOJGUbVh5m6wCKCZWNouVtmxY0c/aZJNvhhRF21VgLMwhFj4huXxt9lmm4pJGpJh7bDnn3/e+yPCwhW5SK7cExbL9jOUmSHN5QisVd7R+qNFF2IGVnbkAwEjl3zIKVYspaSY3WwmsbbEQquDYcRvvvlmmxn0IbBS+igziAeFf/7551e1NTTkws6ftF7wRwpSbjRcnmPOPOmkk/x6Z61CIOXSyQRgJgKrb0zyCbGz6+wiYOSSXdlUHDMKH3MDHn30Ud8hWq7gtto71qxi7a/ojPwQZPBDyaPMcH/88Ud3wgknVN0CZCY/m5BFyQW/w0PhMjSaLRJYRqbV5FMsvd26dXOjR4/28gAvI5cw12T/2sgl+zKKHUMKH/0tLCmCMi1WYFv1GStDX3vttZ4waJWoNhyCK+WF8ucb9rvHtFUtZgxL3nLLLf0ClfiHv5yEEx7c85w4MeyZ/eStv2w63/Kj5Si5yA2xs+vsImDkkl3ZxIqZCpwUFJP9LrjgAt8BXa1SbLb/MFF1797dvf322wWTmFonIcjCUkp+2LBhNW1XQLgrrbSS3/aAVlB75KL3jGb74x//WDWpNYv82A6BEWMcko3cUG52nU0EjFyyKZdYsRKhyEU5oUApkGy81CxKptZ00AqgNYDZSa2WUuQChrQePvzwQ7/6cXvDj9uLG3NjNt98cz/qjGHN+I+8wiOUH9fIkPXG8BuCai+MZn1P6/vAAw/0UIl4wSeKX4ilXWcHASOX7MiiqphIMcllJnnfvn3dbLPN1rJKKaqUWbyTRTyloEQsUSXFPe8YPowJTZus1aLgMY2xEOP999/vJ1XS/1IsXMkPl0mwLAcDsWn4cy1xyCv5kIcxS0puYKOzqsJiP9UVASOXusKdbGChQlIBZC/47bff3oaz/ne+BMqZBSfpixKpCCvwCw/hyT44bGOcFEHPOuusfjABfTiKQzRchU3LinPs2LGuZ8+eLV1BgJi33XZbb8oUbuAUlVuIpV1nBwEjl+zIouKYSCHJxezCBMFNNtnE13rzWmNNMt6sr3bNNdcURmyJWHCjSop7lBgTJ5daaim/1lcScWG2OcOgWeKlVLg8p1UjJUrfGX0+SYSfVz9orTEg4vvvv/eEK9lF5VZxwbEf6oKAkUtdYE4vECkr3J9//tlP+sOcYxMo/2+ey5FHHukmTZpUUNpSUMINRRWezJRnb/sFFligYJKqVTmjJDFxQXIoylA5hmGLWHgG0bCnyXLLLedYxbkVzWLgzoZubActc2KIXXqlynxOAgEjlyRQbKAfFDYUJYqJ1XVvvPFGx46ImBRqVYp5/x+FfPXVV3uFXopMhB8u5ijMivvss4+bffbZE1PoIgaIDv+RFeEpbOKmI3zOhM/+/fs7VhZQ30veZVJp/Bnlx+AKWuVgY0d+EDByyY+sisY0VFD0K7AabyvXdKW8UOgQBMu3iFiKAShljstWBbRaWFqffVtQ6CIG+Vupy//yh1WPmbdBC5M4KV6Kg+Kne4Yvs+x8p06dWraigIkXkhW5CBthZW52ETByya5s2o0ZBU0Kilo3a2ax3Eir1nJDxQ+x7Lvvvn4fFmFUDFApK1xML6+88oobMGCAn8RYK7GE8eEaUyVDa1GWihOursP4KT4MS+7cuXPLypSBFbT2tDeO5BViZdfZRMDIJZtyiR0rChsHphbMB0OHDm3ZWq6UOUqcvWzoQGdYbzHlDWZgJ+WOC4Ysn8MunkxEZevhWheRhKBCE+Wqq67qRowYUQiXMDmjcSRuPKe/4YgjjvDDmZW+VnLXX399vx01c4+EkfJ87EJiHzYEASOXhsCeXKAUNCki1qU666yzWp5cMCPttttuburUqUUVd4h+SC66pgXDGmSXXXaZn9lPZ7xaMTJxxVXwMovpeyZV7rfffl5RhsQixam4IVOeYapj8UZq8K3YImWlAtKvLamNWJRDsu8auWRfRmVjGJILQ2iHDBnS8uSyylXhmF0AACAASURBVCqruBtuuMGvIybCKKWUhJ9cvkfpY4ahz4MBAcw30RYGtEJqUfL05fTu3dsxl4YwwviFceRacUGxHnTQQS3Z97LOOuu4cePGeXKRjMoWCHuZGQSMXDIjiuojokKHff6UU05paXKhpbDFFlv45etlbkJJh4q7FNJS6HxPH5aUO+bGkSNH+uHJoYlLrZFKXdYbY1jyTz/91MY0F8ZLcVE87rzzTp+uSsPK+/ciF8xiyuchTnadXQSMXLIrm9gxU6Gjo/jkk09uaXJhNvyuu+5aaBWIYMCovUM4QioiGLViIBiGBdOXw6TIWpQ2e+1gGmNOjcLCDY9oXNhIjMEAMs/VEn6e/jVyCXNFvq6NXPIlr2liGyohFNDpp59ek+LLk+KJxhXFu9FGG3lTlhaJlPKulFxoMUAsIidqzpMnT/ZDlSGvWpaGYaj4iiuu6O69917fwiKO0fiFcuU9w5cHDRrUckvxG7lMU+Rz88DIJTeiKh5RKSGU4XvvvefOPPPMliUXhh8zsgrzIHgIm1IuiBZ7hzIXqYicuKejH5JhEcqdd97Z0Uqqtv+FVavZI/61117zrRfioSOMk8LnGRtnaSn+VmnBQC6PPfaY9bkoc+TINXLJkbCiUUXhoHxwUaZ06LfyaDG2Fb7yyis9AYQKOrwOlTXXURIJvw2v9R8uI7jY7XPrrbf2Hf20YlD2OqMtqmL3DJem7wXFiZ+EpYNrhRdes+L1wIED/fBo/m8FgoFMn3nmmTbkEmIlzMzNHgJGLtmTSUUxoqBJAX300Ud+nksrKJ2owibN9DdpgmIIYoiRFDnPIGSIIiQYnhc75Idc/GGdMObDMHdFM/rpj4mDP98wh+aWW24pkKHCDcPgmrAUR0iNkWsQWrWtpih2Wb5nnsvzzz/fZigymNiRfQSMXLIvo7IxDBURE+7Yt6RVl3+56qqrCuuIhaAJI7lqFTBhEjKiP4NhwTKlhf9yrf9wo+T09ddf+z4e9r2HYCrp7IdgGN331ltvtWm5hGEqrnKJL60X1huLQ2JZJo44cdtwww3dSy+9VBiggQzsyAcCRi75kFPJWErhoXwYfYRZqEOHDi1Rq5VyQqGzbhd9IerIDwErRg70nzz77LN+ZNlxxx3nxo8f72fng2N4hP9Gr/mWFgXL4z/wwAOOhSnZ9TJui4LvmBx58803F0hLYSsskYpcFie97777WmbOC2uL0YemOUHCRTiZm10EjFyyK5tYMaOwSfGw1MlNN93k9w5JYj6GlHfWXTry6Rx/9dVXvbIHk/CQQhJWEAImxOHDh/vtoBdddFG/EjJKm1ZM+H25a5EL/mk0GcOVMVvFWTaGlgdb+bItNasJ4F80PMlWzyFFRgXSv0QLNeuyqTV+PXr0cJ9++mmh0iAcQvnadTYRMHLJplxix4rCJiXHTG5q0Kuvvro30dRasPPwPx3bbOxFX0SpdcSkkIQVCprVkrfZZhvfyqAFARnvsssu7pFHHvEtEb6RYi+m9EM/dc13tCz+/Oc/uzXXXLPQiilnvqLVxcCAu+++uyBHhSt/cTl0zzbMhxxyiF/QMg8yqiWOm2++ud92WvIQBrELiH3YMASMXBoGfTIBq7BJIU2cONHv3tcKtVqU1vzzz+/22msvv5yK+kykjIUw9yFB0NJgVB3DgUPFpxFc55xzjjcxotDwU/8KY2Eu/3EVBn5zsi4ZJh1aVWEYEE2UbOabbz538MEHFzrtw3CiYRAOlQh2HKWzO64JLoxDnq7ZiZKVDCQHySLExa6ziYCRSzblEjtWUmpy2XWRGjhzMPKkRKqNKy0EJiOyDpgUD1hED56h9PkGExYjy6Iju1D6kDKz8CEHTGcQDP/pwB+deobLM/yWEqR1AQEcfvjhbVZFLpbOmWaaye20006FAQX4o7QUC4M40b+2//77J7pjZrG4NfIZAyR23HHHAqaSX4iJXWcXASOX7MomVsykhKTwXn/9dd//EK0xN1JJpBU2pizMJuxjQ0c+il3KPQRPih/lxHuW4t9+++0Ltf5oSwKlhmmRFtHYsWMLm3sJY7mlwkAmhIWZbsKECe7UU091yy+/fMl+GMJnPgcmOYZGhzINw+Cad5ALBHnrrbf69Efjnxbe9faXwRF9+vQpkDlpFzZRXOw+ewgYuWRPJhXFCEWng2tm6Q8ePLhplwkJFSlL62NOQtGidFDoxWq34CLFBLnQJ0I/jfySG1Wec8wxh1/B+Prrr/ctBY1EC8lF11FX8cGExeRW5sMw27xUi3KRRRbxlQJaPPJLcg1d3pEGCIYtFvr169e0LVR2BGUEHocwMXIJc0O2r41csi2fimJHAWRkzeWXX+7nQUSVZTPcQwQ6GcY7atSoguIpBZYUE8SD/R5TS9w+Kfo01lhjDT8KjyHHIjIpOZGWwgjjoGe4hH3uuee6bt26uYUXXrjQakImpIf4sFUAC2RCHvwTPeQfYfINxEVFAhJsBtlG08CoO9ZT4yDtwrwYNlGs7L7xCBi5NF4GicWAQoct/o477nDzzjtvUyocFBDmMM5DDz3U94tI6ZQCUooJZUyf1MYbb1xotUQVWql7hgwzSZPWQnTOhVpMxZSewtY3LH55zDHHTLMuGQRDTZ1+GiZ38j3pCo/QL6V5zJgxfq5MqXjn+TktPfq+OEi7zhATu84uAkYu2ZVNxTGj8GGzZ7kMRlHlWbG0F3dq+ZdeemlhXko5sKSU2aBrs802q8pkCJnR4qDlwUZkUv7yW/fReEACMqdxjXwwXbII5XLLLdeGZOjYX3fddf3OiyKP0D+FJZdvmPNC7b49vPL4vlevXn7IOOnkIN06Q1zsOpsIGLlkUy5VxYqChy0e5YUNv5mHqbL68QsvvOCVfHtggQutDVYgZsJktbjQumCgxLbbbus70zGxofjCMxoX3ol4iAf3kM2XX37pbrvtNseyMTJryf+77rqrrGksDI/1zVifbOmll65o6Zk8kA1bGzAggvQKO11Hcbb77CFg5JI9mVQdIxVAZnszRDfOLPE8KJkwjihgRnNhomI0FmmOHsJBioh7RpSx7hrmLfwI/Yx7rf8YSMBul+eff77vrMfcJgIJwyTcYiff8D2ERyuIjcOYcY//EB/9KO+++25BqYZ+kNbwHqJ6+eWX/UZmIqm46cn6d2yORsssimlU3nafTQSMXLIpl5piRb8L8yaasd+FuSldu3Z1Dz30kFfQKNrogTLSiCopfdYOY1IjhCuSqFW5soYbS8gw/BuCUbi4nITNGT2IM/HTNyxcefbZZ/vWJqax7t27+1aN/NF3uNH0ck8L6umnn/am0KTSVis2tf5POgYMGOBn55NuO/KHgJFL/mRWNsYoG4azYjbq3LlzVTX0WhVDWv+jcJj7EK4jVkrxgIOIBZd1w1hJuFqTWKk0QXbM6KejX6O8RAKEy7PoQdzCb/meGjorJGO2Q27nnXfeNDV2vitGVviFKXTxxRd3zbDPC3ImHeCBmbeUjKO42n22EDByyZY8ao4NiovRRldccYXfSreUUszjcxQOs+fZYIu+BpROVPGQfp0oXd7TkqPzHyJIOt0owgUXXNDPh2FFapQ/p+JGXMKDe70jfvqWIc6YM+lHoq+BHUVZzp9D30f9kr8851sWwOzSpUviaUwaszj+sbQNq0WTtlLpVvrNzSYCRi7ZlEvVsaIgMiLp8ccf9yOP4hTkvHyDEqd/gvkmqtGieMNDykgKGZeZ72xLrHRCCJy6r8bl/7AVhIlsq622cnTG03JU/KKKMYwfxBK9h2TYOuCSSy7xi1mqhaPvwrRyzXPSiMxZtJSZ/oxsqyZNWfqHhTkhWtJnRz4RMHLJp9xKxprCiGJjMh6r7cadLJglxVIqLizJwhye6CitEAwpYRQuyps1x4YNG9bGRJgGueAnHf2stMyimK+88so0Ey4Vt9Al7ronzpAJLc/nnnvOVxC418F30YNn+o8JtKxltthii+WeXEaOHOnY/K5YmqMY2H02ETByyaZcaooVyoYa8NFHH+07iUsp66w/D1sXtBJYIRcTV7navJQtxALJssfLvvvuWzdlS5zplGc9MUZxQW7EF5mEZykB8w1pqESp6nv+Zel+5odkXbal4gd+VIhuv/12L79KcCiFqT1vDAJGLo3BPbVQKYwoVk42DmPkUamCnKfnzC/Zfffd/fBd0iaFGlU+3EtBQy6Yl5iYGBJVPdI999xz+3W/2KKX+EIwxEdEUyoDKP5KQ6nvwufhP6xjxnpr9UhjGmHQr8auouzPY0e+ETByybf8pok9ikbKjEmD9ay1p6Fs5CerH2MSQ+lK8eo6BIH0S9miyOmjoT+k3uTC4AH2aaG1Rcf0V1995SdPIhvineQRppch0QwGqGU+jzBvhDvbbLN5mU2ZMqUg5ySxMr/qh4CRS/2wrktIIbmwKyL7w6cxSqqeigdiOOigg/xw2yixRBW1yAViYZJl7969p9m3pR5xJ86ctGA22mgjvxLzm2++6Yk/GudaMobSi5+0jCAvSJjtgetNqEngCl4jRozwa8alQcS1YG3/VoaAkUtleGX+a5ELBRNlQ0FlTawkCn6j/Fh11VX9Aobsby/FLKWKGx56zrcsr8KKxvTX1FvRilzADHLH1MO8jWeeecaPJlM8QzdMRyXX8gOZczKpk2HJmvNS77RXm0+IJ2visd8OFQMjl0pyQfa+NXLJnkxqihGKBgUsl1os61dVW+Cz8B+K8o033ojVyU26abUwXJnRcqxS0AhyKYbbAgss4PbZZx/34IMPFmb0IyvJqybBB6POGERAhzh71uSJYFjWh03VGOlIxSgpXGrF1f6vDgEjl+pwy/RfIhZqfswVYHiqlF1earGKLy7rb4WtllLgk25OhirTQmBocOhPFq4hup49e7ZRoEkpUckdl479IUOGNKS/qRqc1Wphi25GBCaFSam8Ys/TR8DIJX2M6x6ClCwFlI5kFmzMI6lQ68YkNm7cuEJNthyYSjdzTNhfnhFmpDsraVdcWGCShUUZrvz22297RZqkMgUH5sow4gqCVbjVKP16/rP22mv7NeMYlCBZ4tqRTwSMXPIpt7KxpkCirDhZeZcZ6vQ9YHaop7KoNaw555yzoIBphbWnaJRulCp7pcgkVGs80viffhh2WmTDM1ZTkBmorGBjvgQHTIOsd8aMfZFsGulIyk9kzVBzVjeQrElHezKPCYl91gAEjFwaAHraQapQimBY1PC0006rapOspJRHNf5Q66bVQuduezV70sw3mM8Y+suQ1qy0WMqlnSVt6IdhYU2tPCD5KU3hPdftHfoe3I499li/oGW5OGThHZWBM844w5OJ8m2ctLaHhb1vHAJGLo3DPvWQpWS0OyWLGmZ13akoEUAOLF7IvibaybGUsuE5ConaP8N9IdI8Db9mRjqDLmhhslumtlFWmnA1cqoUBtHMxHes0gA5s11wFgikXBwYMg7BKp0imGi67D4/CBi55EdWVcUUJcNJ3wvLgjCPoFwhz8q7tdZayy/EqI58lE05xco7lDKrQdNPk5V0xI0HHf2MJmNFAdYIk3IVsUjpxs0E4ME/tIaYyBk3Ho367qijjvJ5lDhzEP/2ZB4XC/uuMQgYuTQG91RDLaaEWaL+z3/+cy6WZKcVw1737B6pvohyioZ3tG6o9Z900kl+35ZGKclawqVPjOHDQ4cOdWwgJmLB1VlMtsUyk8gFXC688EIHWdcStzT/hVTZdE2yFpHGTWux9NuzxiNg5NJ4GSQaAwokiigsmFxjImGl3Q022CDzfRGY71hZQNsHl1M2pI33dGCPHj3az0zPk0ksVNqQKoMQVlllFccWv0wCRW6krRwG0QykPMA/nCze2adPn0ySC2nec8893RNPPFHItyJSXDvyi4CRS35lVzTmUiy4OqSAMRux1hhrbYVKLUvXKBv2px87dmxBoUrZhGmKpo1vMK0stNBCmU1bHJw14ZPJn9ttt5275557/IAGCIY0gkGxU3jg8p5vRS6YFmnRZY10SSvpHDVqVGFui+KvNIbpsut8IWDkki95VRVbCiqKBpc+ifXWW6/NRldxlF69vmHAQb9+/dqsI1Yu0aQJxYsC3WmnnZpq/xr6x+joZ/MwVhxgYAZyFNmGboiRFDPvwQbT2ODBg/0IunrJMU44DGTYfIvN3cSJE33eDNNg1/lHwMgl/zJsNwVSwLjYtVE0s846ayZr+LPMMosbNGiQjyeKtL0DBYrpaNKkSd7kF0ep5ekbyJaRc0y4ZJVr5McRmsqiGIlc9B0tVob5MpckS2nv2LGju/baa31fGXIk3nY0DwJGLs0jy7IpCWu5N954Y2a3QGZEGxteqaVVKlFSoKSLiXcMP15yySUz359UiXLHRIjpiJOFLyEY5ixJlmrFRDECm/Ab+q4wi2VpGDomOvrWwh07jVyiksz3vZFLvuUXO/YUXJQRp1bNRXlVouzS/Ja40GphFWdGiaEcQ2XDdfSebxhqy0AFlrWnZp6lNCWBF+nhRBmvsMIKrm/fvt60yfIupciFTCF5g9GTTz7pTYZJxCcpPxgVx74zmpEflXfsjG0fZhYBI5fMiibZiKFsKMCc1GRZLZkhoFmozaI8Z5ppJrfaaqv5pVCkNKNkUuyevojzzz/fr6FFDT8p5ZcVf0Quig/rktFnRkf/Z5995uf2CBfc8MSExj70AwcO9K06+dEIl3QQLi5mvu23394vrhlOGFU6ks355lujEDByaRTyDQ6X/d1Zy4lO40YrZRQOrQ468sePH+8V4pdffukn1TH5s9zJDPStttrKt3oaoTQbESb9Zdtuu6276qqrvFmJTeE0ZJm+GK6Z18TKyJhAszCpNCQXWmC0WtSSDgmxwcXCgk8QASOXBMHMk1cUaCYdsjQIyorCLwXQCIVJjfyII45ww4YN8y0RzGMjR45s94SQ+LeRca8nXqQTExkVAiZd7rDDDr4VyurKjJiDVOiXYYTZgAEDfOUhS9gQlwMOOMCvBg25hMRiLZc8aZD242rk0j5GTfkFBZkaL7P2u3bt2nBzEuY5zHSLLrqoW2yxxWKf7FyYBdNevQmG8FDUjLhadtll/TpsTLxkO2iWe+EZi2JCQFkiF2RMBYLWlfpZRDBNWdBaOFFGLi0qfAo09u6XXnrJ7zOf1aHJ7SltFGejzXrtxTHt92AAibCddefOndsMOQabLJAL8cD0ycZ1DMBQ/59ca7U0nyIycmk+mcZKEYVZBZvFEjGPFVNCxZ6lrSwr8Z/4tTq5VIJXo75lwmS3bt38ys9MBo22WoxcYhXbXH1k5JIrcSUXWQqzOlQxj51yyinTrJiM4s46uTRKWVq408U2pUL+mC/ZEZXRfSKW5HKz+ZRFBIxcsiiVOsRJLRcIhhFGdAAzPFRK04glvvIUZua2xUx5iKHH7IjJ0Gnym5FLHQp4BoIwcsmAEBoRBZGLlhFhMhtDW5nIaK2VtkrSSKN6PGi1MH/puuuucz/++GPBFAvB2NHcCBi5NLd8S6YuJBcKOjXKKVOmuIMPPtiPQLJ+jOoVqpHR/7BbeeWV/Vp2bIDGApoyxZL/7GhuBIxcmlu+ZVMngpHLkiITJkxwW2+9dW433DLF/j/F3mgsGB12yCGH+ImeymMyi5XNmPayKRAwcmkKMSaTCBQAE/FuvfVWt/baa2du/49GK0sLPz5xMdHzj+v90Y2+abSfKGlmsGTKaJ58MXLJk7RSjivkwnpUmC+YjDfffPMVOvhNscZXrK2OFSZV8g4rLDA6TK2WlLOveZ8xBIxcMiaQRkYHJYDZAnfy5Ml+whszqltdWVr6KyNWVg1gcAjL0IQz8RuZty3s+iNg5FJ/zDMdIuYLTia6Pfjgg35xS2qiNoKsMgXbqoQEsbCoJsRCC5i8RGXFjtZDwMil9WReNsUyYdCCYWXi0aNH+6GkLInfqgrT0h2PWDGFbbPNNm7MmDFthh0buZQtck370silaUVbW8JEMtjML7jgAr9r4AwzzGAEM108RdtqhETeYMHM22+/3bdWNOTYRofVVg7z/LeRS56ll2LcRS6YNtgZ8oQTTvAE02pK09LbPpliMmU16+HDh3tzqibmmkksxQKaA6+NXHIgpEZFUQRDp+wHH3zg+vfv7/dyt/6X9hVuq5ASQ467dOnit6d+9913/VJC6reDZLi2ozURMHJpTbnHTjUEIxPHs88+62fw2wgyIxfIk310FlpoIb8/C5uVaQa+yEX5hjxkR+shYOTSejKvKMVqvVALZf+XRx55xPXp06dp96xvlRZHrelUi4UZ+JhNQ2IhzyjfmGmsouLWVB8buTSVONNLTKgkmAOz8847u7nmmquwl4qZylqnNcPQ9EUWWcQdeuihburUqdMQS3q50HzOEwJGLnmSVgPjGpo2qKViBllvvfXc7LPPbiPIWmwEGTI/6aST3Ndff+37WMIO/AZmUQs6YwgYuWRMIFmMjoglNHX88ssv7sUXX3T777+/r8XWamax/7Pf8qHFMsccc7iTTz7ZL0bJUkH0q+Cq8155JYv52OJUXwSMXOqLdy5Dk0kMxRESDM+feuop3wfToUMHa8E0cQuGPpYFF1zQ9evXzz333HOOyoU67MOWi5FLLot4KpE2ckkF1ubyVKSiVOkecqHWyi6We+65p+vatautpNyEBDPzzDO75ZZbzh1xxBHuhRdecGzNALEgf06ulSeMXFRKzDVysTxQEwJSMPTBHHfccX5oKrVcM3Nl38wVR0YQy4orruhNYd9//72vTIhMaso49nPTI2Dk0vQiTjeB1FRVe2XkECOIOnfubOTSJC2YtdZay40aNaow817yRubWSkm3bOXddyOXvEswQ/HHRPbWW295ZbTFFlu4GWecsbCasg1Vzk9LhsmRrG68ww47+LXCPv/88zZmMCOWDBW6DEfFyCXDwslb1KjJctKCueeee9yBBx7olRSjjOKYYOybbBAQfWcDBw50DzzwgB9urJYpbnhayyVvJbS+8TVyqS/eTR2ayAUXJfTSSy+5/fbbz3cGzzbbbIVWjJFINkgkKgdaK6uttpobMGCAY50w5jMhR8k1vNazps7QlriaEDByqQk++7kcAnT8fvXVV27IkCF+wuXcc8/tCcZMZNkiF1qWc845p+vVq5c3aX722WcFUhGhlJOzvTMEiiFg5FIMFXuWCALUbumHYVfL1157zU+4NBNZtogFoqdVSQvz+eefL8xfIQNALEYuiRSFlvTEyKUlxV6fRMs8hoL6+eef3YQJE9wZZ5zhunfv7tjZEqKxVkzjyIbZ9htvvLHf737KlCnup59+KhCKcojMX7h2GAKVIGDkUgla9m3FCIhgMJFBMO+884679dZb/ZDllVZayc0666zW2V/HYcuQOaTeo0cPd+KJJ7o77rjDmy61fItaKxK0kYuQMLdSBIxcKkXMvq8YgVBBobxYuv/111/3fTGbbrqpX74/2rls98m3aJgQyWrGm2yyibv++usdQ4yjsilmBuMbOwyBShEwcqkUMfu+JgRQVCgwasqYYe6++263xx57eKVHh7/N7k+eVDBBMhJs1VVXdYcddphj0zdm2xcjkpqEaz8bAgECRi4BGHaZPgKQCyYyEQwLILJ0+yuvvOK3UV5sscV8P4x1/NdGMmFf1uqrr+4GDx7s2Ifnxx9/9C1HycBaJenn+VYNwcilVSXfoHSLXNSCQclxQjLM7r/22mvdrrvu6hZeeGHri6mwLyYcIDHDDDN4DJnIOnbsWPf+++/7Pi+1VnB1NigrWLBNjoCRS5MLOGvJE7mg2CAVzGPhku1ffvmle+yxx9x5553nDjroILfRRhu5eeedt7DjpfXFlG7RsGzLAgss4EfjHXXUUe6iiy7yI/S+++67ApGIUIQ/rh2GQBoIGLmkgar5WRIBtVjkquWCq2e4zI1588033TXXXOP7ZOgvmG+++QqtGcw+oemnlUmHVkqnTp3cuuuu6wl59OjR7sMPP2zTWQ+mOkOC4ZkdhkAaCBi5pIGq+VkzAig9tWjeeOMNd/nll7uddtrJm3pQpMwoDxfGDMml2UmH9JF25qlAuMuvsLzbbbfd3F133eWHFYs8ahaCeWAI1ICAkUsN4Nmv6SIAwdCi0Sx/TGYvv/yyu/nmm91ee+3lunTp4jAFhX0NIck06zXEwhpgbDF9ww03+LlDmL6YR6T1wNKVjPluCLSPgJFL+xjZFw1AQMSiWjguLRnMZaxXxoxyVu0988wz/bpl9MtgHoJQqNk3w2gz0gB5iiQXXXRRt+222/o00y/16quv+hWof/31V9+noj4smRgbIDYL0hAoIGDkUoDCLrKEQEguodIU2fCeWjqjoMaMGeNGjBjhV/Nlu2UmZrJsPGajUDlLSWfdhRyZ87P88ss79sXp27ev3+XzwgsvdA8++KB77733fGsOLMCGU7iE91mSp8Wl9RAwcmk9mecmxRAIp5QoLgeu3oUuM87Z4x2zGUub7L333m7LLbf0kwcZRTXLLLMUHQRQrz6aUuHQQmEZnIUWWsits846bvPNN3d9+vTx67DddtttftHPb7/91hMK6RcmpXDQ89wI2iLalAgYuTSlWFsnUSjasOYekg1K9pNPPvH9Evvss49jy162YJ5//vn98OYOHTr4gQGsCszSKKwOkLQ5TSY6THYQyOyzz+7DZMY8pjziQt8RI72Yk/Lwww/7ZVnUd1KMSFpHupbSPCNg5JJn6Vncp0FA5AKxcNJPQ0f3N99847744gvf+T1+/HhHi2DkyJHu2GOP9aPQNtxwQ7fEEkt4U1qSBAOpMKJr2WWX9eY6RnURJqPfiAMrRbMxF3GjU54+JQYwWOtjGtHag5whYOSSM4FZdMsjECUXkYyUNYqbJVAYFPDxxx+7t99+202aNMmvt0Un+f333+9XCr7pppv8HJvLLrvM0ddBn87ZZ5/tO9MZRMAGaDrZRmDo0KH+G76FOFhpNdz0HgAAIABJREFUAPPcnXfe6R566CH3+OOPu4kTJ/rdOZm/8+mnn/o4sL5aSCZqqeDaYQjkGQEjlzxLz+I+DQJRcgk7uEOi0bW+l8tzWjssR/PDDz/4dc+mTp3qyYCJiQwgoEM9evIOwuBb1kqDwBjFhV/yG1fhRt3wG12TOF3j2mEI5AkBI5c8ScviGguBUCGrPyZ8Vsl1SAL8p/tipFVpWPKrWHyU0PCdnplrCOQBASOXPEjJ4mgIGAKGQM4QMHLJmcAsuoaAIWAI5AEBI5c8SMniaAgYAoZAzhAwcsmZwCy6hoAhYAjkAQEjlzxIyeJoCBgChkDOEDByyZnALLqGgCFgCOQBASOXPEjJ4mgIGAKGQM4QMHLJmcAsuoaAIWAI5AEBI5c8SMniaAgYAoZAzhAwcsmZwCy6hoAhYAjkAQEjlzxIyeJoCBgChkDOEDByyZnALLqGgCFgCOQBASOXPEjJ4mgIGAKGQM4QMHLJmcAsuoaAIWAI5AEBI5c8SMniaAgYAoZAzhAwcsmZwCy6hoAhYAjkAQEjlzxIyeJoCBgChkDOEDByyZnALLqGgCFgCOQBASOXPEjJ4mgIGAKGQM4QMHLJmcAsuoaAIWAI5AEBI5c8SMniaAgYAoZAzhAwcsmZwCy6hoAhYAjkAQEjlzxIyeJoCBgChkDOEDByyZnALLqGgCFgCOQBgdyQy3/+8x+nU8DqXq6eZ9FVHOXWK44KTy7hhtf1ikepcMK4hNelvlf8y72vxzvFNXQVNz2rRzySCKNUfEs9TyLMSvwgHhxhfMLrSvzK0rdKV5w4FUtvsWdRvyoJI/pvrfe5IBcA+uc//+n+/e9/tzn/9a9/uX/84x9t3jUSzKgwiAtxlkt8uZerd9H/arlXWHIJC+wUpp4Tdj0OwuPAjZ7EQSfvwjjqH8WR98Ir/C58rvc8S/NQmIQHtuRB4hQ+D9NVj7gQttIdXrcXtuKs+Otf3BDn9vxJ6z3xAOMwPmBL3LIQv2rTTXqUR+QHz0qd+jZ8LxxweR49ou9LfRf9L6n7XJALoFCABQ6uThVsvUsKmFr9QdhkfgoGp+LHc671rNZwov/jvwqjwlJB1L2wi/6b9L3Cw+XQvcKXcuCe61DG+kffhq78Cf/nWXgmnZbQvzAcYau46J3iy33aB2EQPm4YruLSnqv46Tv5EU2TvqunqzSFcSF+Kj+KK9/l6RDWYZz1jDTpWm6YZj3DBQewwRUmeh/6E17zvh5HLshFIEYBCgHnWu/rAVx7YRBnCR1XJ3EMr5MWtLAiDGESunqedLil8CAcyYVr3UcxEC7Rb/k+/DaaFt7JT/mPm+YRhgMhhoW6WDrSjAt+h2EKnzCOlVzzfzFFlTampTAiXMVJacNF7iHupf7P03Oli7SFaZX89Ez3uMW+lT/6vtg39cAlN+RCIf7555/dAw884K644gp30003ucmTJ7tffvmljSDqAVqcMBA8mf+nn35yDz30kLvyyivdtdde65544gn3ww8/tMkUcfyL+w1+g8u4ceN8uA8//LB79NFH3XPPPed+/fXXAlbEr16HCgOZHDzeffdd98gjj7ibb77ZjRo1yl166aXu4osvdhdddNE0J88vueQSd/nll7vrrrvOjR071pGmF1980b3//vvum2++aYMlBSrttOE/+e6DDz7wOD/44IMFrJ988kn317/+1bfClO40cSYMcP3b3/7mXn75ZZ+/wIcTjOOefP/UU0+5iRMnuilTpriPP/7YpzFUTGmmo5TfSh9yJV5hvqZcTZo0yeNd6v+8PCedpPHvf/+7+/rrr31akcno0aN93r/sssuKlpELL7zQ/eUvf/FlhG/QM5STO++80z322GNeF3z44Yfu+++/b2MZqAcumScXgU7hmTBhgtt+++1d586d3SqrrOKOO+449+mnn3qB1EOpVCIQ4o0yJ/P/v//3/9yiiy7qll12Wbfnnnu6Z5991hMMceZM8njvvffcWWed5cPcbrvtPF677LKLO/bYY913331XqOUnHS5pIM1yuQ5PCswrr7zi7rrrLnfmmWe6HXbYwa2xxhpu8cUXd/PPP7+bZ5553Nxzz+3mmmuuwsk9z3m/8MILu2WWWcZttNFGPk1HHHGEO+ecczxBjR8/3vv9ySefePJKI22hjEjXl19+6Ylu9913d9tuu60/wbtPnz5eyVMRIh7CJPw/qWv8JgwqFOSz448/3u26666OeEj2lJc4J9+TNw8++GB3wgkneEVGRY6KCkTz448/tkmLZJtUWkr5E4aDvHfaaadC2v70pz+5wYMHuxdeeKHU75l+rrThot8++ugjrxuoOCNLZLLyyiu7hRZayHXq1Ml17NhxmjJCeenQoYObd9553QILLOAWWWQRt+xyy7pNNtnEUe6PPvpod/7557vbbrvN58tvv/22jRzTBCiT5CLQKTjUnDipDfbt29cDPd100znO+eabz917771OgPFf2ooljjAUD+I1YMAATyyK82yzzebTQaGlNca3OpTu8JneFXMVjpQY99ToKYCzzjqrx4hwuV533XW9QlQYxfyr5Rn+Iie5kh01fBQTLY7ddtvNF5Lf/e537g9/+IPDFS5x3fCfGWaYwRespZZayvXq1cudd955vsYHrmkdpI+0URscPny4L+xh3FEC1BhR+JJLWnHB/99++80TC6Qw55xzut///vceU2EcB2e+5eRfzumnn97NMsssntS32mord+6557rnn3/eEzfYEi6n5J1W+qL+7rzzzm7GGWcs5BniCrHfd999hTiljXk0TnHuVeaEm+7BjwooFRFaZRDl2muv7UmEvB3mdfJY9D7Md6WuwQi/IJ+9997bt/wItx5HZskFAJRRyNCYUqj5A5SAnGmmmVy3bt0cNVd9Ww/Q2gtDCnbq1Kk+s4SKHmFTA6HAYlbh21oOZVT84Joa7I477tguudQabrE44ydykOyoENBS6d69u+vatatXxCgu5AcO1RQW/tV/uChPFA6KFQLFJEAc0jqURmRHTZrWlfIjLuTy+OOP141cwBhTCLVXMA3jUu01uOIXspp99tl9jZgaNK00FDlhhuUtvE4Ld/yNkgvx3GabbQrkgmzSyNe1pkl5BldlA8wwEdPqohW/wgor+LwDqcepEMSVLXJETyLL/fbbzz399NOplo8Qq8ySizIsAsGufs8993jwQ1ARAiYTMjwERB9HFg7iTibCTLP00kt7wYbxplDQbL3hhht8BgsLBNfhfXvpCb/nGnKhEIaERmsp7ZYL8VS6STuywPy3+eabuznmmGMaxScFhhtiE/ea/3TyD9ebbrqpu/3221MtPGBMOmm5UEEoRi7qV1Mebk+G1b4nLlRgLrjgAo9hiCXX1ZCN/gv9Al8qdZQ1Kgp33323N7EqfcqDuGketMjDlgtxpOVy//33+zKjeKQZh2r8Jl7CCpeywUk/KCZLWhWqdCkv4yK/qBx4Hp6l3vOcEz/Qk/yDaRzTNHGox5E5cgkFwTVCwNSDPZhaVBRYWJmO4M8++8wTTD1Aay8M4i1yWWKJJQrCVdwROkqJGgvmIr7n5Aiv2wsn+j3/Qi5Rs1g9yIWwybSqmdExfOihhzrCjio5Mjt25LXWWsttvfXWXrb77ruvNxcecMAB7sADD3S4+++/v39GPwbyp0XWo0cP3xqEtFF2+C9c+Y9+uTQLj9KZJXIZOXKkxyBUNDPPPLPvz4Lce/fuHeuEnDHLkGf5P/QPjLmHZOjXoTOdzmewVp6VGyffVvNNMXKh5ZI3csEU9swzz7hDDjnEVwLBNcSaa0gUOZDfMSdTBigP5PHoyXNaJfvss48vJ+iVnj17+grlcsst51ue9M3Q+Y+eTLN8hHLNJLmgoMiouNiuMXUAdqnm4l577eVNEbRe+K/RB3FAgAw2WHLJJYuSC4WVGj2tDBGjCmcladA/pJnruGaxpDEibNLMST/LoEGDfPqk+OVCBiuuuKInDyoFmJAYhPD555+7r776yo+UoaXKyT0nOPINacPMxuiyk046yRcoFCcKkUKEf3SKVoJfpTgoneXIhT4XRueARdpxCVsuwhi34zwdXa+tevlWBvGJc95xxx1+1NExxxzjlRp5N2wBy3+Ihz6eN954o5BG0qmzUkzjfl/KLJYHclG+IU+QR/v379+msiyCQc9R8cKyQUsDmbz55pu+DGCOpFzQl6uTgTKUEfIBlhLKCaY2LD2MsDzttNN8WaNiRh5g4ABxqMeRSXKhtQIA1IwAFoCUsaMMz3Ps+dTeqBGkncHjCEUZCaVIZ3PY5FU65NKPxGgOMojSXYnww/RyLXJBiQurYh36fJvkgX9UBjjffvttX8tSGtW8B4c111zTmwMpJHxLWsP0cq3n0fgRht4rPDpDwRlz2Ouvv+47R5NOWxgPxQFyKdXnQiGmUpRmPIgT/pciF0YOUZtF+QhPYV3O5VvKHfkRsmZUJnJTXpJMF1tsMTdw4MCC/BRGmmmOkgv5Kk9mMco3OFFZ3njjjafBFJzRZYcffrjP08ghxBW5gS9nKEM9E/a65xv+556Kt67D/JzmdebIhcQKOMBgTsvyyy8/jWlFTE8Gg+1pOqqzSkJIE7hyfiNM4hCHXOjAI33Y75m3ocxUzv/wnTISz7iWWaze5KLwSTeKnma5FJFcho4yJ4QamApaNL1KD26xQ+/DPEKlAiVKiyntAkT4hN1ey6XR5LLgggsWyEWYxXXBEEwhGGrOmJ7CgTTIk3tMmgzJjprHisktiWd5JhewB1fy/UEHHeRHuqpcyGXoMBUT9Ab4ixAqxa6YnPGLfKt3lfpZzfeZJBcAAAgyLcPzMB+JTHBpDTBHAqHoOaMtmD9RSllVA061/yj+cciF+GNmWGmllbztWK2vuGGHmYXrRpMLcWD00nrrrVeQjwoPNTLMXxQwYaQMX0l69Y/8UKHlud7F9a/S7xRm1sklbLkQ57gn+KkMcQ3BUK6YpyU5ykXGDNrA1KJ/CCetI6/kAh7gAkYoedJBmReOuPSJYKGhUqKKF8PMuS53hHKNfsc7lQmVC30f/TaN+0yTy1tvveU7rzTaAUUM0eyxxx4OuzD3EhDP6fSN1qLqCaYEJKGWIpdiZgbSQgc48wnICHGPMH1cZ4FcMKdg/kI2pEtyQmZM5BS5CCfcuEf4D9ecFFopNxWiuP5V+p3Cb3ZyUTrBk857OolV1uRiMmMGOfOY+C5t7JuFXBghhg4Qjrirr766X8FDeVlEpLJSKp+qDMgNvwtlqPdyw+/Sus4suQAqHVJ//OMf2whh/fXXd9dcc41f/iUc0YJ5jJEVzD+IEkxa4JXyV0ItRi4QJbPNmZeAOU8ZDAXM8xNPPNG99/5709Q0y4VFeBy4jSIXpRkFw3IUjAQL00b6jjzySG9GoeCE3yv+pdIYPufb6EmY5Bcpt0r8C/2Oc43fhJNHcombvhBfZEUH9NChQwvylFwZRMEwaM3e139xwqnmm7ySi/IM+QbdhJkRfSUccTHrYxJTHgZ3XfN/uUO4R79TuOF7XZfzL6l3mSQXgCXDMhIoKgTmhtB0ZIRIly5dCjUAvqPvglnaYSdmFPCkgCvnj4RajFzoXKeQMPmTZWzUKlNGg2COOvqoQtOYDKZMVizMMLNw3UhyQcEju1tuucUTvdKEC7kwnJKZyHwjjHRdLG1ZfKZ4Z51c1OfCwIkwj7SHqdKnfzDjMGiACkMoT64ZjDJixAhfHtvLp+2FG+d9nsmFfM6JqQtyCcs9ZUNWC74By3pVluLgXu03mSMXwGWYHc3tVVdd1WdowKcZyTwXFmQjw7/zzjveRomtUpme9xtssIEfjteIDiwJQQW0GLnQ0c6aQVdffbU77LDD/NpZij8uHaXrrLOOV9DM4CWjKWPK/9CVEuAZ140iF8JXoSAODA8nPchOLuse9evXz9eEkQ8FSIQUpinL15JtM5OL0ohL3qPlMmzYsEI5U37FLHbjjTcWzGJ8n+aRZ3JROWbQCeU/HCAB0TDYhbXc+A4cJQPdp4lrWn43nFzCDMk1mZlOX+ySLFooxYRSRgBMzkMx0bJhwhytlZlmmsl/h5CosTG0lwKBXyivMIy0gAz9VcYoRi6MDqPmwgq0LFtDjUVpVKHFZMZaWcwjoLO0nAImLKUPNwvkQuXg1FNP9aa/sIZGgWKhStY4YlUFOouRkQqQ0hFimbVr4kh8W4VcSCsj/Ch7yp9yWUSUliiDUCTDNOWVd3IBI3QX6Qg79KmAMQSZvkrKOt+FZx7KRTG5Z4ZcVGgBn1YJYIedXhANo5CYKCRli3JiMUsIRQoa5c0SFYxiwS/OegtHaSlHLnTcU4vBvLfaaqtN0//CDH5Wp2W5BprSZLboQTg6ecd1o8lFZMFy4awGHfaLSUYMvmC2NXOTiK9GyBH/rB/EEVm0ArmQTkzMZ599tq8UiFRwKWfIkEqeZM73acqwGcgF3cVitrTi1aoHTypetOrRfeCpM21M0yxvDSUXFVS5AEpm1jpiAp/+FIZCsl8FChnA+Za+F8xkjEwKv8VUxvh8lBbCDDM81zrTAlbpKUUuTPxiFi3pYAACq+sya50CqwJMelDCzH+hFaY4l3JJC+8aSS6KG+lCTtR4WdOsGMEwmIGJeCydDxERb+a/0OEZ+qNr3CwcxIP0ZZ1cwqHIxLcUfiG+uuZ7yg3li7KIFSEcfEKlD5MYnfzCQ2GUCicJ2eWZXIQTuLL8PatNy+JCmae8M3iJ8k5rEJM4FeMQV8lHbhRTPecfnTxr1NFwcpHyBwQIA7MXNslQ0dIJzhIfLJPCNwCHS40eEwyTucJWDoJikylaNhJOCLCEED5L8hr/CbcUuVBYWS9NaYZQ2eiHuToiF2U4Bi3QXA7TDWZKV5gWrhtJLlEMIRhaaCwjEtqYlTYqDZjNMHmSdjYPAzMKFemFaKJpjYZR73vJNuvkwrprrDVF3lIeibrkIZ16J9xRbphuMX2FZQuZYUVg7otanMXyYhpyaQZyASv0FqZ7KldheeeaijGjXl977bUCwajsK+8J7xDj8B3lhpP/eN6oo6HkQqIBSuDRv8BCjoBOhlZrhFo9OxbSBOd7/aOCgA2fJdclKAoAi+uxC1/I/vUCWYIuRS6Qp8iFtJDZIE6RqtKNS41xyy23dLfeeqtPtxSvcCAsZSDcLJEL8oH8kSkz9qMyIn2cEAytGxbqYz4FmyXxnwoIaQ3TWS85FguHeBCfrJMLLRcWA6WCRZ7hhKiRiU7uw5NvaK3QF8iEVyYqo+xCOXHNYA3WhIsSf9oyyiu5kF9CrLhmCxEImvJN/gdX9BfXYA72DPhhLT10A7pRpIErmcrlGXoEwuc6DA+5NOLIBLkABBmeDnrsjrRUIAjARunQMqEwAySCUuGQ0BiezNBeCQiXPhuGSWrEVT0BlgKKSy6kn7TRXN5iiy0KaRdZsikaBYtx8KQnmnGUNtwskQvyIcOj4JiI9+c//9kvyEdLBfmG8uKekxo3I/5QYNimWd79iy++8HInfdGz3oWG8ElX1smFMsTOnVS8WGFaq01HV9TlXu9Zi4yJyKykTAUPsw0tThQeLv0EkA6VNu3pAhb1kkleyUV5Bqyku1gT76WXXvIjXukzjrYO0XvIgJYjfZeUB2RJa7TUqff0QzNHkHUZCVMyqndZyQS5ADgKk3XEMI+EigezEFt+ilgEFv9IWPRJHHXUUQVTGkqLGgECYc8EgYuQ63EoM8UlF6WFOQnsF6/Z7SIXXObEMLKMtZxExmG6VMCzRC7EibhyIj8WtGQCLIWAAiU7PvJC5qQTRcZJYWOfC/qnMCEwQEMKTWmVWw+ZKgzCBPeskwtYgimkAM5xztBaoLyHLPCHYf70CTBclnwKBmH+C++FVdJunslF+UZlnTJBa4RVjFlhmvKtypZkx32lJ7JCjhtuuKG3ACg8wq/30XByEejUyKnZqq9FoLIsAhMjeS+glKnlIigRUygYiIr95MOMT3g60wJbaYpDLoqL/iGzsdouZg0Ktgo5SgKzER2sEExItqEfWSIX8BX2yI6TfhiGWFNLpgDQH4O5LCxYSjMuz6nBMQGTORWYE9nTnYIZzQ/CEDetQ2HkgVxCHKu5VhnkX2TE6hj0ZT755JN+kAmyBI+oHNLCPs/konIgF8wgafZ1oZXBnD5VsGqVleSF7pNs0iwTpeTdUHIJMyYKh01vQoVK5oZsGFlBBxeZOQSL/+UH65AxtyIUDLU19jGAfCRUuWmCjd+EE4dc+E7pQEhck1ZGUUWVLpmPzlT6JCBbhRNiMnnyZD9EFNOTFDYmkuhOlPzbiINwkQfmMvY8gTDowERWim8oQ671HDMNBIucWV5ftmVcyRW/OdM6hHmzk4swx9WpssnITWQAyYO75KC8nBb2eSYX8qTyKRVD9S9jBhauyvfCXvdxXPyQaQ09QUuIFj+6oVFlveHkQoYEAK1HFQWWGjvmEWq5sDwdjnyPsKRQcFFUdPqH/wMyioul7FFmyvyAnSbgUkBxyEVxCV3ssfQ/MeEwzHikDbJlHaJx48YVyEXhkb6stVyKKRriSUGjkDGaibk8DFhgPTIIFblJjnIpYDyHYDCpYS6DZLUpF34qX+CmdQjrrJMLuJF3IG3s95xxTGP6BkXF//gTPfmGDa2w7dOKpmyBucpXWtjnmVyUP8k/4IX5mwngMkUqz+OCr+QX16xJueBEP0As+M9AAMJr1NFwckHJoPxRmB07dmzT8pBCQQDUvhk1hcmI2jmKSRkawXGPPRgzixgcAbE8/xlnnFF0z++0QJcCiksuKpT8p38hUQYqMASbDKbaCwWezHPcccf52jv/hidmIya3ZbnlQnyjssNEwMgYzJv0n9HSopBR2JT20KXCQcc/u/UxTwa8qHDgL2dah+STdXJhxBH4UHsF00pOzDTs9kmFj4VU6eDv1KlTgfCRA2ULcyWyYsAF5U/5OC3s804uKqdgy3YF0lPCk7INaTNikomrbEvMt3Flh9yYaI41QCuUkF/DI3ofvkv6uuHkwvBiwGM/EzKsFAjX4SkBrLzyyu7oo4/2NXcpEwmNGjAb8dD5qO+ZiMiIC5aUCRVamiBLAVVLLvof4sVuylBs4SIXGy3vWFSQgq1/8kAuoRwkO54hT2p1yJGCQs2YfIE8lReUfkiHk8JIxYTvVaDwM61DOGedXOizY1QRI/VUTsA4zsn35ClkQR8gC5EiC0YtgrlkgXIEf2rJrJwB7uCT1pF3cqE8o4doddOSVF7GhVhoubN997333utb9HQD8E8cman8IDvJOyoPZKMzLRmF/taNXFQolTjdoxwZasx6WgIboFkdGKWKy73ekbFZGoW1jhjKx/4gFATApfbLcirUqMj4fMu/3DOMl2/5Lgp6CEgS10pbXHLR92HYxJG4MsKKVgrKQhjIhWAwDYXzf/JCLtF8ILko3RQQTGbU4GixMqy2VMsWUwAmRBY7Rcah3+F1iG+115JVHsiFeS5gqPweYhH3GrlwsqIEZY4WEWVKBEOreplll/GrMaiSUy227f2XZ3IBQ1rXmH8ZpCT8VJaXXnppP1m6VL9yHHkh5/DUP+Cqa7ntYZ3E+7qRC4kWC3NNRgRIJhMxJyUkEOzudBjSf4BLhpYQ5GJfZD8JTCKaKIZCws7IwpCqZfE9tQRaL0wOE/iAnNaB34QTl1yi8eD/sPbx6quveoIhQ5IeuZiNIGAUnQg2D30u0fQWuwcDCiTpog+K2hzmvlJmMnBh5QNMo/wXyhm/OJM48Ae/s04u9EsxIo8KV63p539aMQyiQDFioo4qR0w49L8khXMxWeWVXMgv5GNaLczHQ7+h76TzwJIh+pAP39Yqr2LYNeJZ3cgFwCj0Ag4QyfgoAwpCqDQYQfHoo4/6eQ0s5EY/CwQTNskRDCYvzCbMANcCerjU5rVcP0qHb2kBERYEh6DTLAT4TfqqJRcygjIZLiNLWEWYNEEopIkTPBg9xlbQWvAu6y2XSjI5aedEXuQVKgf0sZBf1DJVngAPsKCVx3ptymvCMSl5S7atRi7gyaoJ9AFQoVEFB9y5pu+Fio1wr0TOcb/NK7mQZ5g5TyWR0Y7kXfKtTvqzmGJAPk86v8bFNo3v6kYuRB6QdZIJ6ZhnQp1s6mRUgKeJiLKkZYNQuGZ9LWav0yIR6yMcvmcVZCZaIiC+Z4AAo8RUAHBp6TBjn+GTaRYApZNMUi25gFHYcpFf9Ctg41aNB7wwS1DY2X8bMyHkwvDrrHboV5KJVdBwkRkjw8gz1PKYc0ENmjwADlJyjCpkrxzJmH/lTyVhl/oW2eBfq5ELaaZskcewAghz4U6rEitCklhHZZBXcgETiJlVKqg4o490UkGmDxniocyTv5rlqDu5ALTAZjRUVFkyCohMpJnoAM73zOvAXrn77ru32YFSmZvaLMskUMOnlrvb7rsVOvZVEFC6aRcAMoYUUJLkAg6MymEfevqQlCYRKATDBDcWGxS56JsszXOJW3CEIS4nZAEG1O44GRWDkgtH0pFe+qZYk0n5RvkNP5I4FK9WJBd1SFNxU96SSwXv9ttvL+R9YS356b4WN8/kQtllYVZa18IMl1YLOom+MfJsUvm0FpyT+rfu5IKSoMDThGZPdTUNAZpr9jaBdCATKQZc/uOkY/6QQw7xzctorZVBAZtuuqmvIfTv3993AoeCxDTGMuGagKiMLzcpUPGPOFdLLsRDaVfccMl8dFjT2gsHQCiNEC9mC/qcIBQ9rxe5EEeOMM7FruPgzH9goP+Fh1ywYOE/7NdKJy4tNhYtpZZNftH/uEkcilezkksxvPQMUmcAzmabbdYGc3CnxcioMn0bYs2zJI68kwvm+pBcqBhSGWIRUM3XEn6hmwR2jfCjbuQCWFIMuIyhpyMfgsBkhYsSpHlNy0MkhIsikT2Sf1ljChMRo4RUc1czE39QOIzPJzPqPQWAjn3WG2OCovwnXlxzJnUorbWQSzRRGXWFAAAN/ElEQVQupJuaIy79UdGdAZVRWU2VuTFh30w9yYX4Kf1c69Qz3FoO+YO/bDbGnB+RCxhALgxNVn7he521hKt/FX6rkQt4k//oz6KVIszlUqFhpGaaRxxySTP8av0mz6DT2HsKywyYSV+hqzDpsyoHeg6ccUP9xP95POpGLoCjQk7BHzJkiO+QB2gIgXOTTTZx1113nR+ZEoIbAg7wjFyhBsUIIhQpfTb8T/8L/RGYSmilUEvguQoA1wxZpdM39F/xSkqA+EeckyQX/CTOnNRyIGcGMyhtuKQb5Rr2YfGcZ/VY/kXpJu2cwlVY61ktOAsHFB0DPTArhBiQVlpwUXKpJczwX6WxWcklTKuulWaN2iu2sCqrK7MXE9+mdcQhlzTDrzZdxIn8ymg7ls6RToJgKLOYuTHnq/JIOVGZyWJ64uJQV3IRaHQKshBh2DENMbD0N2uM8Z1OwOXUvUCXkmWZeuZBQCQiF9UK5IbKh9bOLrvs4pWP/JLfcUFr7zvFN2lyUTzxn/kvzAHRnJ4wjdHrepMLuFIJUE2MeAtr4l7LIQxYS45VoklbmF71uYTh1RpmGF/JthXIhbQqvQyuQTnSr8mgmhBzrjE3M4kV+aR1VEouin81bpJpEIYMRcZsz8hXdBO44aIHMfEyEIl8q7wrt5a4FEt7Lf5V8m/dyIVEAha2cFY5pm8lzKDUtpnTEu0PkTIJXQkL/6ihYsukH4YlFagVSHCh/7pGkLSQGFVFXEJ/KwGu3LeKXxrkosxC2iFi9jxhUmm5NNfbLEYTH9Md5kdGySAjFRTiX+3BvxAWrVa2g2VGs2qByBfZMoqMFR8IL4kwo3GVbPNCLnQUK89E01LqXt8rrdSoGc3E7PGoNYCaN6uPM1KTlk2a5ILJPDT3Intmu2OOC+NMusL7aq9L4VPpc+FIf+kFF1zg8YqWV0yNvKNMk8fJu3L5v5pD4SITXeNW61+lcUiNXKIJ4B4lwzIR0eUPAJoZ2CwjodquQJDy517XxVxGYzCCCBs8GTAqPJELz9kjZuDAgV7xpamAkiQXBKtMIizAk+U51llnHV+DL5VmavfsxaFJbsK20sxS7nvFiTgy5Jv1kVgyhDlIbHXMxkXU3JiHhFlTBSeUpeIlV++QEWmlcEJcDEVmD3fJFJe0Y79mNWlaNZKrMCsX90reKZ3lyIUOWibE8W2aB/5DtPQ9hVhwTQtOO1EKazCJe/IPpAI5QSzDhg3zeSysvIE5qyYMGjTI50PJK6k0Kx8Ixyi5ED6re7ChHHmKyiJn9Jr7ak/lH8WhmrTxL7gTBypbxbZlR2ZUuMGS5Y8oq5B1tGIWYhJeC3tcyRj5UVmnj5r8qvX3lBa51aQpzj91IxcSTV8BcxBQDGGNE3MWO1CyIRSAxE00fvI9YHLNHBbmw2DXZJBAqGzDa2ryKFsKJsLj5P+kDuKPf0mTSzR+hIOyZnBDFFMpXFzIhVZdPciFODEKkD4v5IoZkmHi1MwoOCheMjp5gcKDMgB/lJlwQ57cSzZMIqXyQIcoZgVGyuE3adNJq4XZ4xAP/6d1KI5ZJxcwh1yozKFgdIJ5uROseY98WPmCRRDZfhvMVYZEMFTiGAJPJ7/KIfgkdQhryROTHOVaMsdl5Bo6hUoWq31ET55XemKe0j/kQeKhs5q06V90Ammhf0od+6SBvAu2nMx7YVAOacL0DSFQRoQvfsg/uTyjvIhUkR//sVoJy/Zcf/31PkysCeiL0I9q0hP3n9TIJYwAIJAgEssY+XA5F5QErY0xY8Z4QACf79s75Cf+cvIfdmFqxyzNT8252FpUEiYERK063N2wvTDjvlfc0iYX4kOmQvGy3QDmvrDg6Vpkmia5IAMKAWlmGRZIhfApMJhOkDnb5LJkDysNMBCDQQas3Ath9O7d28sMuXHiB/v4kCaIkU5kJtfSOlFhVPoIAwKlBk/4xCWtQ7LNOrmg+Gm9UInipHVbyYl8UHKsMg6xgLnwxuUe+WEOQ2FR/sA9TtmNKxthLT/pKw1HiBIP8hWjTqlcJXlSUSH/UbYIX2fcuIffhengGtMXlhPKA2kg/wpbcKW8Kk3IAVMvZQSLD3PYaMHp5J6Rej179vTzvviWE1mTBsgfGTJ58+STT/atoqTlFKY1vK4buVADYKY9yx+EGRUgAQrTCYqykoRLaPzDSQYXyWCHxSwTTjiUABEmfTx0EDLfppIwQ/BKXSte9SAXpZ1WG0ujiLjDDAvGKIIkCkq5NFNbYrQfzXtkHMaB6/Ce2i8nlQtqo8iDuHPSh4TLM4hJfkX94B4lykRc9nZ/+eWXCzW8UvGs9blkm3VyIa8L3yh+wjGOqzIjFz9R8MxrYT0xhthStpUPcZM6wFonflJeySvEm/jIVdyScvGXfIdSpkKMXkKvEJdqDqVBLnihd0444QTfggHTUnEnLsiPdNOqoWxA9pxcc/KcaRYqK3yPnyE+XNPyYx8o6btq0xMXg9TJhQSQGBQbTexwXwgSTOuCDliUYxLkQlj4Q/MeEwwz2un4RTihAFFq7PUSgh0XtPa+U5rTJhfCUY2RdDM0m/kvZDxlWDCmtk/NRy0XZa720lHJe+JCc5xZyGx7wOx5al8oIrAOMzpyiN6HstF7vgm/41rpwk9qftTYKKQUVtWgwSStQ7LNCrnQ8r7sssu8cgmxiuJZ6z0KC7KnJsw8oquuumqa0U1gw5nUIf+UX5k8TF4O80et6Sr2PzhSaaGljCVE5FJtupQOuaQHgqEyxNIvtJCYIhFtlRWLWy1ppyVK5U94JimrYtikRi4CEpfE0DKh+Yb5gozKCdPSsqADFpNKpeQSgsS1ahcKk3sUPAWB2jSFA+XEyXWvXr3cc889VwC7GEDVPFP42LvJoGRUpZn0Y/JhtJowqiYM/uF/pZn0o1wffPBBb4emtUI6UcJkXJZEoZapuOEmfRAHCg2Ys/EXI9kwazGaiNZF2BIhbnGUId/oJC0UQOzVKDlITKsgg0OYH5JOm/yTzCCX4cOH+8qRZEuaNOOaVpzio3+TdokLfSmYpjCBUHtVXHCJT7Wn/MFPKitYHKigMGQWC4QULnEQ9mmkDwyVx9n0j7ldxIm8oDjWmtYoRvhNGAwyglySkCM4yR/lIe4x5aMbWVEE6wLlBB1BHIhXnDISkhDfKz0qL8iPPlB0IP2zhM8hN2m5yb9UyCUEEgDJiCg9lBwJxeRBDYRr2BRlRAbSmUSiFQf8pKAzSYmmPJkGBYVygliobRNHziQP/INcsAOHaWaOAHZSyCXJcJVearL0JVGrh2DAmf4M7LzRTsEk0xv6BeaQDB2MEBpL9rCwJsqJjmbkjwyoXKgA4YaFJLxGedDyBEf6bBh2zhpqjB4jb9X7AGta2gwdpe9O+RnzBCMRSS8d4sg3ibxcLn34j8xZ1wsCkEmROBGfak7yjMwvaqnQOmIeC8oQ+aadLtJMGGCoSicd3AyHxuJA+nQS32rSWeof6SbSjlmMvEyakzyUNqWPskLnOwRKqx89QWWMfK+yESUaEYme44pQSBtWIvQPq5Iw0IkBUxqanmRaSvmVCrkQWAgeAJIolkznfPrpp32nO9eYMwAWASoTJZFxw/Dxm5EvKPQnnnjCPfnkk16Q1PSTDDMEmfBVK2GAAafSzdBOFGOShVTphUBQNsyWRsmRXsLDTKi0Ig/OtA7FhTDAHtlT02eIJXNfwAFywCTJCDDWksM0ynBXChcns+95RjMecx8mTvILMkTJoLyVnrTSUcpf0kdLG8UDzsRLMuZepMd3nGke+C+MCZt4EJ9qT/2PIuKkfGJZYGQl+Vl5J+10gZnwU5hUEhnFRaWQ/KM0Cnvd1+riH3kUZY+ckyynygtKGy7pIy+jj6iQYi4De+JAGcEKwEZ4lAfmd7G6CWWEViTbWDMFg/eUJb4HG9KAH5QX5EcFnnyJfqjXkSq5CDhlDgDkRFg6Baye809ShwRIGGQSEZjCIg56lmS4xB//8D8Mq9g9cUvqIMwQa5G2nuGG3yQVbjF/CEcYkKHBgfCFAffED7MOrRuUF8NIIQ7MLgwHxSQBUdK6lB/6H1fpKRZ+ms+UNqVHcSIvEU/FS981Ii7Cm7hUcpIWnfKDdET94Fnah8KVrFVWhTfxU1z1TTSe1dzLf/kpN8n0hmnDf4Wh58Sb9KG3IB2VEYZ9Uz5UTqi0Ucmh8kyFi/wn/+Til7Djul5H3cgF0AScruUqk5BwniV5KEyBThg6AV+gpxWuwleYcvWcOCR5hP7iN+HpmcLWsyTDLeaXwgVjxUVx0D3f6LvwGd/pPvwnfKZ/i4Wd5jOFq3grruRjTu7Dd/WKi7DB1bWwq8aVH9H0hvdpp03YEmY0XcK6mrS19w9hyX+FSxySOvBLaSMcYc0z4av34bti8eZ/yhin/te/+j6NNLSHRerkIhBJpA6BF7oCQc/0ba2uwpe/oSuh6VmtYUX/j4atNOIqTNwkD4UZDUP3ikPS4RZLQxiXMFw9xw1P/Ajvi30X9YdvGnFE41nsnriSx9I+FHY0P+t5ki5pCf2rV9oIM0xfsXwQxqvWa/yX0g/9Siq9oZ+ki7A4CTeKcfhteB3GRXlN74WPXJ4Lv/C/NK9TI5c0I21+GwKGgCFgCGQbASOXbMvHYmcIGAKGQC4RMHLJpdgs0oaAIWAIZBsBI5dsy8diZwgYAoZALhEwcsml2CzShoAhYAhkGwEjl2zLx2JnCBgChkAuETByyaXYLNKGgCFgCGQbASOXbMvHYmcIGAKGQC4RMHLJpdgs0oaAIWAIZBuB/w/7eBNYgvDHDAAAAABJRU5ErkJggg==;imageBorder=#000000;strokeWidth=3;" vertex="1" parent="1">
          <mxGeometry x="280" y="-467.68000000000006" width="117" height="87.68" as="geometry" />
        </mxCell>
        <mxCell id="lPv-uambnAq8Y00hWXkL-11" value="Dev" style="verticalLabelPosition=bottom;html=1;verticalAlign=top;align=center;strokeColor=none;fillColor=#00BEF2;shape=mxgraph.azure.user;fontSize=11;" vertex="1" parent="1">
          <mxGeometry x="30" y="-380" width="47.5" height="50" as="geometry" />
        </mxCell>
        <mxCell id="lPv-uambnAq8Y00hWXkL-15" value="Users" style="aspect=fixed;perimeter=ellipsePerimeter;html=1;align=center;shadow=0;dashed=0;spacingTop=3;image;image=img/lib/active_directory/user_accounts.svg;strokeWidth=3;fillColor=none;fontSize=11;" vertex="1" parent="1">
          <mxGeometry x="680" y="-290" width="50" height="48.5" as="geometry" />
        </mxCell>
        <mxCell id="lPv-uambnAq8Y00hWXkL-16" value="" style="shape=flexArrow;endArrow=classic;startArrow=classic;html=1;strokeWidth=1;fontSize=11;exitX=0;exitY=0;exitDx=0;exitDy=0;" edge="1" parent="1" source="lPv-uambnAq8Y00hWXkL-15">
          <mxGeometry width="50" height="50" relative="1" as="geometry">
            <mxPoint x="575.25" y="-290" as="sourcePoint" />
            <mxPoint x="580" y="-400" as="targetPoint" />
          </mxGeometry>
        </mxCell>
        <mxCell id="lPv-uambnAq8Y00hWXkL-17" style="edgeStyle=orthogonalEdgeStyle;rounded=0;orthogonalLoop=1;jettySize=auto;html=1;strokeWidth=5;fontSize=11;fillColor=#f5f5f5;strokeColor=#666666;" edge="1" parent="1" source="NLAMYtO9Em05IslKq7qE-35" target="NLAMYtO9Em05IslKq7qE-18">
          <mxGeometry relative="1" as="geometry">
            <Array as="points">
              <mxPoint x="550" y="-560" />
              <mxPoint x="570" y="-560" />
            </Array>
          </mxGeometry>
        </mxCell>
        <mxCell id="lPv-uambnAq8Y00hWXkL-19" value="" style="shape=flexArrow;endArrow=classic;html=1;strokeWidth=5;fontSize=11;" edge="1" parent="1" source="lPv-uambnAq8Y00hWXkL-11" target="lPv-uambnAq8Y00hWXkL-4">
          <mxGeometry width="50" height="50" relative="1" as="geometry">
            <mxPoint x="410" y="-370" as="sourcePoint" />
            <mxPoint x="460" y="-420" as="targetPoint" />
          </mxGeometry>
        </mxCell>
        <mxCell id="lPv-uambnAq8Y00hWXkL-20" value="" style="shape=flexArrow;endArrow=classic;html=1;strokeWidth=5;fontSize=11;" edge="1" parent="1" source="lPv-uambnAq8Y00hWXkL-11" target="lPv-uambnAq8Y00hWXkL-2">
          <mxGeometry width="50" height="50" relative="1" as="geometry">
            <mxPoint x="410" y="-370" as="sourcePoint" />
            <mxPoint x="460" y="-420" as="targetPoint" />
          </mxGeometry>
        </mxCell>
        <mxCell id="lPv-uambnAq8Y00hWXkL-21" value="" style="endArrow=none;dashed=1;html=1;dashPattern=1 3;strokeWidth=2;fontSize=11;entryX=0;entryY=0.5;entryDx=0;entryDy=0;entryPerimeter=0;" edge="1" parent="1" source="lPv-uambnAq8Y00hWXkL-2" target="NLAMYtO9Em05IslKq7qE-35">
          <mxGeometry width="50" height="50" relative="1" as="geometry">
            <mxPoint x="320" y="-490" as="sourcePoint" />
            <mxPoint x="370" y="-540" as="targetPoint" />
          </mxGeometry>
        </mxCell>
        <mxCell id="lPv-uambnAq8Y00hWXkL-22" value="" style="endArrow=none;dashed=1;html=1;dashPattern=1 3;strokeWidth=2;fontSize=11;" edge="1" parent="1" source="lPv-uambnAq8Y00hWXkL-2" target="NLAMYtO9Em05IslKq7qE-1">
          <mxGeometry width="50" height="50" relative="1" as="geometry">
            <mxPoint x="320" y="-490" as="sourcePoint" />
            <mxPoint x="370" y="-540" as="targetPoint" />
          </mxGeometry>
        </mxCell>
        <mxCell id="lPv-uambnAq8Y00hWXkL-23" value="" style="endArrow=none;dashed=1;html=1;dashPattern=1 3;strokeWidth=2;fontSize=11;entryX=0.01;entryY=0.78;entryDx=0;entryDy=0;entryPerimeter=0;" edge="1" parent="1" source="lPv-uambnAq8Y00hWXkL-2" target="NLAMYtO9Em05IslKq7qE-11">
          <mxGeometry width="50" height="50" relative="1" as="geometry">
            <mxPoint x="320" y="-490" as="sourcePoint" />
            <mxPoint x="370" y="-540" as="targetPoint" />
          </mxGeometry>
        </mxCell>
        <mxCell id="lPv-uambnAq8Y00hWXkL-25" value="" style="endArrow=none;dashed=1;html=1;dashPattern=1 3;strokeWidth=2;fontSize=11;" edge="1" parent="1" source="lPv-uambnAq8Y00hWXkL-2" target="lPv-uambnAq8Y00hWXkL-4">
          <mxGeometry width="50" height="50" relative="1" as="geometry">
            <mxPoint x="320" y="-490" as="sourcePoint" />
            <mxPoint x="370" y="-540" as="targetPoint" />
          </mxGeometry>
        </mxCell>
      </root>
    </mxGraphModel>
  </diagram>
</mxfile>
